<?xml version="1.0" standalone="no"?>
<!DOCTYPE svg PUBLIC "-//W3C//DTD SVG 1.1//EN" "http://www.w3.org/Graphics/SVG/1.1/DTD/svg11.dtd" >
<svg xmlns="http://www.w3.org/2000/svg">
<metadata>Generated by IcoMoon</metadata>
<defs>
<font id="icomoon" horiz-adv-x="1024">
<font-face units-per-em="1024" ascent="960" descent="-64" />
<missing-glyph horiz-adv-x="1024" />
<glyph unicode="&#x20;" horiz-adv-x="512" d="" />
<glyph unicode="&#xe900;" glyph-name="moi-search" horiz-adv-x="1225" d="M1178.301 599.963c-32.731 9.352-65.461 23.379-98.192 37.406-28.055 9.352-32.731 14.027-46.758-18.703s-23.379-37.406-56.11-23.379c-28.055 9.352-42.082 32.731-42.082 60.785 0 9.352-4.676 18.703-18.703 23.379-9.352-4.676-23.379 4.676-32.731 4.676-51.434 4.676-98.192 18.703-140.274 46.758-28.055 23.379-60.785 37.406-93.516 46.758-56.11 18.703-107.543 28.055-163.653 37.406-42.082 0-79.489 28.055-93.516 70.137-4.676 9.352-18.703 18.703-32.731 18.703-28.055 9.352-60.785 18.703-88.84 23.379-28.055 9.352-60.785 9.352-88.84 9.352-42.082-46.758-70.137-102.868-79.489-168.329-4.676-9.352-4.676-23.379-9.352-32.731-18.703-51.434-32.731-102.868-37.406-154.301 4.676-14.027 14.027-14.027 23.379-18.703 37.406-14.027 79.489-23.379 121.571-28.055 32.731-9.352 65.461 0 88.84 18.703 9.352 4.676 18.703 4.676 28.055 0 56.11-18.703 112.219-37.406 173.005-56.11s74.813-42.082 65.461-102.868c0-9.352-4.676-18.703-9.352-28.055 0-14.027-4.676-28.055-18.703-37.406-46.758-56.11-93.516-116.895-135.598-177.68-37.406-46.758-79.489-93.516-112.219-144.95 18.703-23.379 32.731-28.055 56.11-18.703 18.703 9.352 37.406 23.379 51.434 42.082 46.758 65.461 88.84 135.598 135.598 196.384 9.352 14.027 23.379 28.055 37.406 37.406 9.352 9.352 23.379 9.352 32.731 4.676 14.027-9.352-4.676-18.703 0-28.055 14.027-14.027 4.676-28.055 9.352-42.082 4.676-46.758 4.676-93.516 0-135.598-4.676-32.731 4.676-65.461 4.676-98.192 0-4.676 4.676-9.352 4.676-9.352 56.11 9.352 70.137 51.434 70.137 98.192v158.977c0 18.703 4.676 32.731 28.055 18.703 14.027 4.676 18.703-4.676 28.055-14.027 28.055-32.731 56.11-65.461 84.164-98.192 42.082-51.434 88.84-102.868 130.922-158.977 4.676-4.676 9.352-9.352 14.027-9.352-9.352 56.11-32.731 107.543-70.137 149.626-28.055 32.731-56.11 65.461-74.813 102.868-9.352 23.379-23.379 42.082-46.758 56.11-46.758 37.406-60.785 98.192-46.758 154.301 9.352 51.434 23.379 60.785 70.137 60.785 9.352 0 23.379 0 32.731 0 18.703-4.676 37.406 0 51.434 14.027 4.676 4.676 14.027 4.676 23.379 0 9.352 14.027 23.379 14.027 37.406 9.352 18.703-9.352 32.731-28.055 28.055-51.434 23.379-4.676 46.758-9.352 65.461-18.703 28.055-14.027 60.785-23.379 88.84-32.731 23.379 56.11 37.406 112.219 56.11 163.653 0 4.676 4.676 4.676 4.676 9.352 0 0 0 0 0 0 4.676 23.379 0 28.055-9.352 32.731zM243.142 642.046c-4.676-28.055-28.055-46.758-56.11-42.082-4.676 0-14.027 4.676-18.703 9.352-18.703 4.676-28.055 28.055-23.379 46.758 0 0 0 4.676 0 4.676 23.379 46.758 42.082 98.192 56.11 154.301 4.676 9.352 4.676 23.379 9.352 37.406s23.379 23.379 37.406 18.703c0 0 4.676 0 4.676 0 18.703-4.676 42.082 0 46.758-23.379-18.703-65.461-28.055-140.274-56.11-205.735zM593.826 581.26c-4.676-9.352-18.703-18.703-32.731-14.027-60.785 4.676-121.571 18.703-177.68 37.406-9.352 0-14.027 4.676-18.703 9.352v0c-14.027 18.703-18.703 46.758-9.352 65.461 4.676 18.703 14.027 32.731 23.379 46.758 18.703 28.055 18.703 28.055 46.758 18.703 46.758-9.352 98.192-23.379 149.626-37.406 14.027 0 32.731-4.676 46.758-14.027 0-32.731-9.352-74.813-28.055-112.219zM645.26 398.904c-4.676-4.676-9.352-4.676-18.703-4.676v0c-23.379 0-32.731 14.027-28.055 37.406 4.676 32.731 28.055 46.758 56.11 32.731 4.676-4.676 9.352-4.676 9.352-9.352 4.676-18.703-4.676-42.082-18.703-56.11zM813.589 557.881c-4.676-18.703-23.379-18.703-37.406-18.703-23.379 4.676-46.758 4.676-74.813 9.352-14.027 0-23.379 4.676-28.055 18.703v0c-14.027 28.055-4.676 60.785 18.703 74.813 0 0 0 0 4.676 0 4.676 4.676 14.027 4.676 23.379 0 14.027-4.676 32.731-9.352 46.758-9.352 18.703 0 37.406-9.352 46.758-23.379 23.379-14.027 9.352-37.406 0-51.434zM1080.11 553.205c-4.676-9.352-9.352-28.055-14.027-37.406-4.676-14.027-9.352-18.703-32.731-14.027 4.676 9.352 9.352 23.379 9.352 32.731 4.676 18.703 14.027 32.731 32.731 37.406 4.676 0 9.352-9.352 4.676-18.703z" />
<glyph unicode="&#xe92e;" horiz-adv-x="1044" d="M135.989 57.484c7.259-24.036 23.551-43.429 44.833-54.611l0.497-0.238c20.852-19.039 20.398-34.904-3.626-49.863-8.815-4.793-19.162-9.246-29.931-12.765l-1.346-0.381c-6.685-2.637-14.429-4.165-22.529-4.165-15.875 0-30.38 5.871-41.459 15.561l0.073-0.063c-40.937 30.874-69.25 76.599-76.932 129.027l-0.129 1.069c0 14.052-4.080 28.558-4.986 42.61 0.216 62.91 24.856 120.024 64.926 162.392l-0.104-0.111c42.52 48.448 101.503 81.541 168.135 90.506l1.398 0.154c22.665 4.986 45.33 3.626 70.714 7.253 12.239 0 18.132 4.080 21.305 16.772 2.692 14.174 4.231 30.479 4.231 47.143s-1.54 32.968-4.485 48.779l0.253-1.636c-1.681 17.101-4.399 32.531-8.177 47.538l0.471-2.209c-8.156 26.647-21.218 49.669-38.26 69.115l0.183-0.214c-40.904 42.709-72.131 95.028-89.942 153.208l-0.718 2.726c-2.177 8.354-3.427 17.944-3.427 27.827 0 15.112 2.923 29.541 8.234 42.753l-0.274-0.771c22.806 58.722 72.651 102.432 133.827 116.259l1.256 0.239c19.87 4.526 42.687 7.119 66.111 7.119 11.361 0 22.58-0.61 33.626-1.8l-1.37 0.12c47.413-4.056 86.852-34.397 103.961-76.238l0.298-0.823c10.879-34.904-6.346-55.302-41.703-45.33-11.081 1.286-20.983 5.518-29.14 11.883l0.129-0.097c-7.645 6.079-17.438 9.752-28.090 9.752-6.218 0-12.144-1.252-17.538-3.518l0.299 0.111c-20.408-4.059-38.509-11.628-54.527-22.117l0.584 0.359c-5.664-3.524-9.586-9.391-10.415-16.212l-0.011-0.107c-3.706-15.949-7.909-29.423-12.964-42.472l0.725 2.128c-1.973-5.421-3.415-11.724-4.054-18.263l-0.025-0.322c-1.842-9.694-4.351-18.205-7.59-26.346l0.337 0.961c-1.566-3.034-2.484-6.623-2.484-10.426s0.918-7.391 2.545-10.556l-0.061 0.13c9.223-16.169 20.543-29.944 33.812-41.545l0.185-0.159c14.506-18.585 35.357-34.904 31.278-63.008s16.319-58.022 18.132-90.66c0.188-1.903 0.295-4.114 0.295-6.35 0-17.847-6.83-34.098-18.019-46.283l0.045 0.050c-14.92-13.793-24.231-33.465-24.231-55.313 0-12.937 3.265-25.112 9.016-35.745l-0.197 0.398c4.856-7.814 7.734-17.296 7.734-27.451 0-18.438-9.49-34.66-23.852-44.047l-0.201-0.123c-29.464-22.212-45.33-56.209-77.514-77.967-6.603 0.82-14.245 1.287-21.997 1.287-44.655 0-85.684-15.521-117.988-41.464l0.368 0.286c-19.256-12.434-31.823-33.786-31.823-58.074 0-17.796 6.747-34.017 17.823-46.243l-0.052 0.058c3.236-3.775 5.206-8.719 5.206-14.122 0-1.908-0.245-3.758-0.707-5.521l0.034 0.151z" />
<glyph unicode="&#xe92f;" horiz-adv-x="1044" d="M335.894 773.695c4.533 14.052 3.173 31.278 17.679 41.25 9.973 0 17.225 11.332 28.104 11.332 10.951-3.798 24.788-7.554 38.93-10.478l2.32-0.401c0.279 0.003 0.609 0.005 0.94 0.005 48.568 0 87.94-39.372 87.94-87.94 0-11.416-2.175-22.323-6.134-32.331l0.208 0.595c-7.169-21.432-16.539-40.036-28.152-56.983l0.501 0.774c-4.83-7.097-7.712-15.858-7.712-25.293 0-2.271 0.167-4.504 0.49-6.685l-0.030 0.247c2.389-41.93 9.678-81.228 21.329-118.603l-0.931 3.465c-0.148-0.405-0.233-0.872-0.233-1.36s0.085-0.955 0.242-1.388l-0.009 0.028c51.223-7.253 67.995-45.33 76.607-90.66 0-9.066 3.626-15.865 13.146-19.039 51.676-19.492 100.632-45.33 153.215-61.649 6.251-2.862 13.559-4.531 21.258-4.531 2.414 0 4.79 0.164 7.117 0.482l-0.27-0.030c11.332-8.159 21.305 0 31.731 2.72 15.105 6.852 32.754 10.845 51.336 10.845 24.432 0 47.251-6.903 66.614-18.865l-0.546 0.314c20.693-10.49 34.629-31.605 34.629-55.975 0-6.721-1.060-13.194-3.021-19.261l0.124 0.443c-1.363-1.061-3.1-1.701-4.986-1.701s-3.623 0.64-5.005 1.715l0.018-0.014c-15.516 17.421-38.010 28.34-63.054 28.34-2.217 0-4.415-0.086-6.589-0.254l0.288 0.018c-37.624 7.253-57.569-5.893-57.569-38.53-0.091-0.951-0.143-2.056-0.143-3.173 0-19.527 15.83-35.357 35.357-35.357 0.050 0 0.1 0 0.15 0h-0.008c11.368-7.844 25.441-12.528 40.608-12.528 20.585 0 39.155 8.63 52.288 22.469l0.030 0.032c6.561-4.668 11.385-11.405 13.541-19.247l0.057-0.245c-12.88-30.455-42.508-51.436-77.036-51.436-4.811 0-9.528 0.407-14.116 1.19l0.493-0.069c-50.155 2.45-92.429 33.764-110.748 77.586l-0.31 0.835c9.066 18.585 0 29.011-15.412 38.984-41.291 23.635-89.738 46.099-140.145 64.49l-6.724 2.145c-5.284 1.424-11.35 2.242-17.607 2.242-13.613 0-26.323-3.872-37.086-10.574l0.298 0.173c-17.428-12.709-39.27-20.334-62.893-20.334-14.757 0-28.819 2.975-41.619 8.359l0.707-0.264c-1.953 1.094-4.286 1.738-6.77 1.738-5.594 0-10.424-3.268-12.686-8l-0.036-0.085c-14.754-20.753-31.326-38.765-49.892-54.498l-0.424-0.351c-8.667-6.517-14.214-16.78-14.214-28.339 0-2.322 0.224-4.591 0.651-6.788l-0.036 0.223c-9.519-3.626-18.585 12.692-25.838 0s2.72-17.679 6.346-26.291c6.219-13.308 9.848-28.895 9.848-45.33s-3.629-32.022-10.13-46.003l0.281 0.674c-9.207-22.243-30.739-37.607-55.859-37.607-3.647 0-7.219 0.324-10.687 0.944l0.365-0.054c-6.346 14.052 4.080 20.852 12.692 28.558 14.56 5.722 24.68 19.656 24.68 35.955 0 1.386-0.073 2.755-0.216 4.103l0.014-0.168c-0.33 19.032-12.34 35.177-29.154 41.599l-0.311 0.104c-10.286 5.312-22.386 8.612-35.212 9.062l-0.146 0.004c-19.71 2.492-37.614 7.918-54.073 15.864l1.037-0.452c2.72 23.571 22.665 24.478 38.984 29.464 25.028 2.273 48.094 7.897 69.678 16.454l-1.684-0.589c24.118 32.945 50.174 61.877 78.857 87.972l0.47 0.421c9.552 7.707 15.611 19.412 15.611 32.532 0 4.573-0.736 8.975-2.096 13.092l0.084-0.295c-0.803 5.087-2.226 9.66-4.213 13.917l0.133-0.318c-7.080 11.133-11.284 24.698-11.284 39.245 0 22.809 10.335 43.204 26.578 56.758l0.118 0.096c11.207 11.165 18.142 26.611 18.142 43.678 0 2.659-0.168 5.28-0.495 7.85l0.032-0.305c6.799 0 8.613-4.986 17.225-14.506-4.050 39.628-16.505 75.64-35.551 107.229l0.647-1.157c4.080 5.893 0 11.332 0 18.132-11.77 18.872-24.947 35.221-39.846 49.819l-0.045 0.044c-10.306 9.041-17.923 20.916-21.642 34.407l-0.117 0.497c-0.92 2.496-1.453 5.379-1.453 8.386s0.532 5.89 1.508 8.559l-0.055-0.173 6.799 29.011c4.533 4.986 0 11.786 4.533 17.225z" />
<glyph unicode="&#xe930;" horiz-adv-x="1044" d="M254.3 46.605c41.345 1.234 74.392 35.045 74.392 76.575 0 12.934-3.205 25.119-8.865 35.805l0.201-0.416c-3.173 9.066-8.159 16.772-12.239 25.385s-7.706 18.132 3.173 24.478c2.666 1.973 6.019 3.158 9.648 3.158 6.185 0 11.566-3.441 14.334-8.512l0.043-0.085c2.266-3.173 5.44-5.44 7.706-9.066 11.894-19.794 18.93-43.68 18.93-69.211 0-22.553-5.49-43.824-15.207-62.549l0.357 0.756c-7.704-16.799-21.287-29.794-38.055-36.548l-0.475-0.169c-18.183-9.63-39.749-15.283-62.635-15.283-38.853 0-73.9 16.294-98.682 42.421l-0.057 0.060c-3.137 1.77-6.771 3.177-10.614 4.030l-0.265 0.049c-4.986 3.626-3.173 10.879-5.44 16.319-7.253 21.305-23.118 42.61 0 65.275 20.398-5.44 10.426-28.558 22.665-38.077 15.748-25.735 42.162-43.621 72.937-47.545l0.497-0.052c9.519-3.173 19.492 0 26.745-7.706z" />
<glyph unicode="&#xe931;" horiz-adv-x="1044" d="M940.593 232.004c0.784 4.127 1.232 8.873 1.232 13.725 0 42.559-34.501 77.061-77.061 77.061-1.55 0-3.089-0.046-4.616-0.136l0.211 0.010c-3.134 0.267-6.781 0.419-10.465 0.419-25.12 0-48.588-7.070-68.524-19.329l0.568 0.325c-13.146-8.613-17.225-4.533-17.679 13.599 3.437 6.94 8.727 12.521 15.227 16.221l0.186 0.097c20.801 11.926 45.728 18.96 72.297 18.96 29.36 0 56.714-8.588 79.686-23.39l-0.582 0.351c25.121-15.238 41.649-42.437 41.649-73.496 0-5.264-0.475-10.418-1.384-15.42l0.079 0.523c-0.444-12.59-1.582-24.476-3.388-36.14l0.215 1.689c-2.050-12.445-9.683-22.766-20.19-28.455l-0.208-0.103c-11.786 0-13.146 9.973-13.146 18.585-1.437 3.826-2.268 8.249-2.268 12.865 0 8.879 3.075 17.039 8.219 23.474l-0.058-0.075z" />
<glyph unicode="&#xe932;" horiz-adv-x="1044" d="M472.79 642.691c0 8.159 6.799 12.692 9.973 19.492 12.124 19.047 19.493 42.162 19.943 66.967l0.002 0.121c0.106 1.499 0.167 3.249 0.167 5.012 0 41.558-33.689 75.247-75.247 75.247-0.696 0-1.39-0.009-2.082-0.028l0.102 0.002c-16.772 0-34.904-3.626-45.33 17.225 8.377 10.386 21.102 16.974 35.366 16.974 3.532 0 6.97-0.404 10.27-1.168l-0.306 0.060c59.043-3.165 105.72-51.812 105.72-111.361 0-15.602-3.204-30.456-8.991-43.94l0.277 0.726c-6.466-24.027-19.86-44.329-37.884-59.227l-0.193-0.155c-6.185 2.146-10.745 7.461-11.773 13.952l-0.013 0.1z" />
<glyph unicode="&#xe933;" horiz-adv-x="1044" d="M530.359 302.718c7.286 12.324 20.507 20.46 35.628 20.46 7.576 0 14.675-2.042 20.777-5.607l-0.195 0.105c58.356-20.252 108.346-43.519 155.495-71.115l-4.093 2.214c3.737-1.844 6.853-3.653 9.841-5.641l-0.321 0.201c19.945-14.506 19.945-21.305 0-37.624-22.089 28.84-53.469 49.591-89.611 57.821l-1.049 0.201c-42.61 11.332-83.407 26.291-125.564 39.437z" />
<glyph unicode="&#xe934;" horiz-adv-x="1044" d="M472.79 642.691c5.226-2.844 9.312-7.222 11.718-12.524l0.068-0.168c2.212-45.339 7.232-87.713 14.957-129.136l-0.905 5.839c0-8.613 0-13.146-7.253-14.506-6.848 0.136-12.486 5.15-13.587 11.703l-0.011 0.082c-7 34.147-12.633 75.598-15.676 117.766l-0.189 3.265c-0.131 0.767-0.206 1.65-0.206 2.55 0 7.055 4.605 13.035 10.973 15.097l0.112 0.031z" />
<glyph unicode="&#xe935;" horiz-adv-x="1044" d="M131.456 137.718c-3.544-5.675-5.645-12.568-5.645-19.951 0-4.379 0.739-8.585 2.1-12.501l-0.081 0.267c2.699-6.861 4.263-14.808 4.263-23.12 0-3.197-0.232-6.341-0.679-9.414l0.042 0.35c-0.426-0.042-0.92-0.066-1.421-0.066-6.582 0-12.2 4.126-14.41 9.932l-0.035 0.106c-6.152 11.158-9.772 24.459-9.772 38.605 0 28.009 14.191 52.703 35.776 67.284l0.287 0.183c31.156 25.989 71.619 41.767 115.767 41.767 1.692 0 3.378-0.023 5.058-0.069l-0.248 0.005c7.861-0.191 15.177-2.354 21.525-6.010l-0.22 0.117c0-14.052-7.253-17.679-19.039-18.132l-45.33-3.626c-17.67-0.921-33.107-9.74-42.955-22.966l-0.108-0.152c-0.028-0.541-0.044-1.175-0.044-1.813s0.016-1.272 0.048-1.902l-0.004 0.089c-17.006-11.082-31.824-22.876-45.44-35.916l0.111 0.105z" />
<glyph unicode="&#xe936;" horiz-adv-x="1044" d="M388.023 607.788c7.706 0 14.959 0 17.679-9.973 8.873-23.864 16.436-52.225 21.364-81.481l0.394-2.833c0-9.066 3.173-19.945-11.332-24.025-9.066 6.346 0 20.398-10.426 27.198-4.672 28.332-10.66 52.92-18.272 76.782l1.047-3.801c0 6.346-6.799 12.692 0 18.585z" />
<glyph unicode="&#xe937;" horiz-adv-x="1044" d="M324.108 727.458v-16.772c-2.77 1.802-4.576 4.883-4.576 8.386s1.806 6.584 4.537 8.363l0.038 0.023z" />
<glyph unicode="&#xe938;" horiz-adv-x="1044" d="M335.894 773.695c0-6.799 0-12.692-4.533-17.225 0 5.893 0 12.692 4.533 17.225z" />
<glyph unicode="&#xe939;" horiz-adv-x="1044" d="M254.3 46.605c-4.388-0.643-9.453-1.010-14.604-1.010-39.097 0-73.253 21.152-91.649 52.637l-0.271 0.503c-13.146 38.984-8.613 52.129 29.918 80.234v0c2.47 0.2 5.346 0.315 8.249 0.315 17.468 0 33.971-4.134 48.583-11.477l-0.623 0.284c26.482-12.039 44.564-38.261 44.564-68.707 0-11.066-2.389-21.575-6.679-31.038l0.192 0.473c-6.346-7.706-13.146-14.959-19.492-22.212z" />
<glyph unicode="&#xe93a;" horiz-adv-x="1044" d="M940.593 232.004c0.013-0.607 0.020-1.323 0.020-2.040 0-12.271-2.167-24.036-6.139-34.932l0.226 0.709c-9.649-18.677-28.814-31.224-50.91-31.224-3.474 0-6.876 0.31-10.179 0.904l0.347-0.052c-13.436 1.938-25.156 8.16-33.985 17.213l-0.012 0.012c-7.673 9.583-12.314 21.884-12.314 35.268 0 22.95 13.644 42.713 33.263 51.62l0.356 0.145c5.085 1.353 10.923 2.13 16.942 2.13 27.216 0 50.723-15.885 61.754-38.889l0.178-0.412z" />
<glyph unicode="&#xe93b;" horiz-adv-x="1044" d="M441.512 446.867c3.173 5.44 5.893 10.426 14.506 10.879 1.087 0.059 2.36 0.093 3.641 0.093 39.305 0 71.168-31.863 71.168-71.168 0-0.511-0.005-1.021-0.016-1.529l0.001 0.076c-0.114-12.983-2.94-25.277-7.936-36.383l0.23 0.573c-4.533-13.146-15.412-12.239-25.385-9.519-24.028 7.333-44.958 17.841-63.654 31.265l0.646-0.441c-27.651 22.665-24.478 52.129 6.799 74.794z" />
<glyph unicode="&#xe93c;" horiz-adv-x="1044" d="M389.383 778.681c7.302 4.707 15.709 8.707 24.624 11.574l0.76 0.211c5.389 2.127 11.631 3.36 18.162 3.36 28.039 0 50.769-22.73 50.769-50.769 0-3.434-0.341-6.788-0.991-10.030l0.054 0.324c0-3.626 0-7.253-2.266-10.879-3.626-23.118-19.945-28.558-38.984-29.011-2.025-0.253-4.37-0.397-6.748-0.397-23.755 0-44.15 14.388-52.945 34.926l-0.143 0.375c-6.346 17.679-14.959 36.717 7.706 50.769z" />
<glyph unicode="&#xe93d;" horiz-adv-x="1044" d="M441.512 446.867c0-6.799-4.986-9.973-8.613-13.599-6.803-6.312-11.047-15.301-11.047-25.281 0-11.62 5.753-21.896 14.566-28.136l0.107-0.072c18.996-15.779 41.799-27.695 66.788-34.185l1.206-0.266c1.467-0.338 3.152-0.532 4.882-0.532 5.174 0 9.943 1.734 13.758 4.652l-0.055-0.040c10.426 0 19.945-4.986 18.132-16.772-2.054-9.489-10.086-16.596-19.882-17.222l-0.064-0.003c-2.46-0.253-5.315-0.398-8.204-0.398-17.943 0-34.584 5.575-48.285 15.087l0.279-0.184c-29.296 9.71-52.634 30.537-65.442 57.358l-0.286 0.665c-1.883 5.492-2.971 11.819-2.971 18.401 0 20.227 10.27 38.055 25.879 48.555l0.209 0.133c9.973 6.346 16.319 0 19.492-8.159z" />
<glyph unicode="&#xe93e;" horiz-adv-x="1044" d="M389.383 778.681c-3.84-7.264-6.094-15.877-6.094-25.016 0-17.423 8.191-32.932 20.932-42.888l0.12-0.090c8.886-6.821 20.164-10.932 32.403-10.932 18.014 0 33.947 8.904 43.64 22.552l0.112 0.165c8.159-22.665-6.346-36.717-19.945-48.503-10.059-5.777-22.116-9.184-34.969-9.184-18.087 0-34.598 6.747-47.153 17.862l0.075-0.065c-12.14 12.806-19.605 30.148-19.605 49.233 0 12.89 3.405 24.984 9.364 35.432l-0.185-0.352c4.259 7.109 11.922 11.794 20.678 11.794 0.22 0 0.44-0.003 0.659-0.009l-0.032 0.001z" />
<glyph unicode="&#xe93f;" horiz-adv-x="1044" d="M861.266 269.627c-17.176-13.567-28.099-34.392-28.099-57.77 0-10.409 2.166-20.313 6.071-29.284l-0.184 0.474c-1.84-0.331-3.958-0.52-6.121-0.52-16.831 0-30.983 11.466-35.073 27.012l-0.056 0.253c-1.158 5.109-1.821 10.976-1.821 16.999s0.664 11.89 1.921 17.533l-0.1-0.534c8.613 29.011 29.464 38.077 61.195 25.838z" />
<glyph unicode="&#xe940;" horiz-adv-x="1044" d="M271.979 68.816c8.613 41.25-16.772 68.901-40.797 97.459 3.311 0.655 7.119 1.030 11.013 1.030 32.796 0 59.382-26.586 59.382-59.382 0-5.362-0.711-10.557-2.043-15.498l0.095 0.416c-2.711-13.261-13.91-23.224-27.57-24.021l-0.081-0.004z" />
<glyph unicode="&#xe941;" horiz-adv-x="1044" d="M177.693 177.608c-19.27-14.361-31.615-37.085-31.615-62.693 0-5.731 0.618-11.317 1.792-16.696l-0.094 0.515c-14.506 9.973-5.893 29.011-16.319 40.344 6.558 20.601 23.758 35.989 44.976 39.837l0.354 0.053z" />
<glyph unicode="&#xe942;" horiz-adv-x="1044" d="M190.385-13.684c-3.856-0.437-8.325-0.687-12.852-0.687-54.727 0-100.938 36.46-115.669 86.414l-0.216 0.853c-10.426 61.649 42.61 118.764 123.75 133.27h11.332l152.761 160.014c-5.754 9.935-10.028 21.514-12.15 33.828l-0.089 0.623c-0.779 5.198-1.224 11.197-1.224 17.3 0 47.622 27.098 88.915 66.716 109.301l0.69 0.322-24.025 135.989c-52.064 7.2-93.346 46.034-104.113 96.196l-0.146 0.81c-0.937 5.453-1.473 11.734-1.473 18.14 0 25.074 8.209 48.231 22.086 66.929l-0.214-0.302c24.549 33.793 61.37 57.384 103.795 64.246l0.916 0.122c10.567 2.948 22.701 4.643 35.232 4.643 62.899 0 115.824-42.703 131.365-100.698l0.217-0.951c0.594-4.545 0.933-9.802 0.933-15.137 0-47.406-26.754-88.563-65.986-109.196l-0.675-0.323 24.025-135.989c52.189-7.474 93.536-46.376 104.56-96.634l0.152-0.825c1.023-5.52 1.608-11.871 1.608-18.359s-0.585-12.839-1.705-19.004l0.097 0.645 206.251-96.552c10.921 4.612 23.706 8.389 36.989 10.721l1.088 0.158c80.234 13.599 151.855-25.838 163.187-90.66s-45.33-126.017-123.75-139.162-151.855 25.838-162.734 90.66c-1.057 5.452-1.662 11.721-1.662 18.132s0.605 12.68 1.761 18.754l-0.099-0.623-198.544 90.66c-14.049-7.075-30.349-12.45-47.509-15.277l-0.994-0.135c-7.904-1.356-17.007-2.132-26.291-2.132s-18.388 0.775-27.249 2.265l0.957-0.133-127.83-135.989c11.501-12.175 19.682-27.602 23.025-44.758l0.093-0.572c0.748-4.483 1.175-9.648 1.175-14.913 0-21.161-6.905-40.709-18.584-56.515l0.183 0.26c-25.686-32.948-63.235-55.608-106.126-61.552l-0.852-0.097c-9.404-2.077-20.449-3.536-31.737-4.063l-0.447-0.017zM157.294 89.668c9.76-4.916 21.272-7.794 33.456-7.794 5.978 0 11.794 0.693 17.373 2.003l-0.513-0.101c17.893 1.768 33.646 9.757 45.314 21.742l0.016 0.016c-4.177 2.494-9.041 4.385-14.22 5.393l-0.286 0.046-11.786 2.266h-25.838c-17.492-2.755-32.58-11.459-43.442-23.938l-0.074-0.087zM854.467 219.764l-2.72-3.173c-4.533-4.986-6.346-9.066-6.346-10.879 9.733-8.497 22.552-13.678 36.581-13.678 5.706 0 11.212 0.857 16.397 2.45l-0.395-0.104c31.278 5.44 45.33 23.571 45.33 28.558-9.911 8.703-22.988 14.013-37.305 14.013-5.605 0-11.019-0.814-16.132-2.329l0.401 0.102c-11.275-2.15-21.312-6.092-30.32-11.559l0.403 0.227zM446.498 403.803l8.159-3.173c6.656-2.486 14.347-3.925 22.374-3.925 4.433 0 8.763 0.439 12.95 1.275l-0.419-0.070c12.592 1.947 23.797 6.757 33.299 13.745l-0.209-0.146 3.626 2.72 4.533 5.44c3.655 4.070 5.891 9.48 5.893 15.412v0c0 10.879-22.212 22.212-48.503 20.852h-6.346l-11.332-3.173c-24.931-6.799-39.437-23.571-37.624-34.451 1.683-5.045 5.050-9.147 9.42-11.732l0.099-0.054zM430.18 816.305h-14.052c-17.065-2.143-31.821-10.642-42.070-23.010l-0.087-0.108c-2.885-3.319-4.643-7.684-4.643-12.46 0-0.721 0.040-1.432 0.118-2.132l-0.008 0.086c0-11.332 21.758-21.758 45.33-20.398h17.225c24.931 7.253 40.344 24.025 38.53 34.904s-17.225 23.118-40.344 23.118z" />
<glyph unicode="&#xe943;" horiz-adv-x="1044" d="M268.352 62.47c39.761 1.023 71.603 33.499 71.603 73.411 0 12.617-3.182 24.491-8.787 34.863l0.192-0.389c-3.952 9.722-7.905 17.772-12.332 25.515l0.546-1.037c-4.533 8.613-7.253 17.225 2.72 23.571 2.618 1.979 5.927 3.169 9.514 3.169 5.747 0 10.781-3.056 13.564-7.632l0.040-0.070c2.266-3.626 4.986-5.44 7.253-8.613 11.516-19.064 18.33-42.090 18.33-66.707 0-21.646-5.268-42.062-14.593-60.035l0.343 0.726c-7.235-16.284-19.98-29.029-35.817-36.086l-0.447-0.178c-17.936-9.776-39.284-15.525-61.974-15.525-37.262 0-70.903 15.504-94.825 40.412l-0.042 0.044c-2.59 2.063-5.594 3.752-8.848 4.918l-0.218 0.068c-4.986 3.626-3.173 10.426-5.44 15.412-6.799 20.852-22.212 41.703 0 62.555 19.945-4.986 10.426-27.198 21.758-36.717 15.729-24.509 41.37-41.481 71.128-45.278l0.493-0.051c9.066-2.72 19.039 0 25.838-7.706z" />
<glyph unicode="&#xe944;" horiz-adv-x="1044" d="M930.167 241.069c0.532 3.319 0.835 7.146 0.835 11.044 0 40.557-32.878 73.434-73.434 73.434-1.729 0-3.445-0.060-5.144-0.177l0.229 0.013c-3.172 0.284-6.862 0.446-10.59 0.446-24.058 0-46.541-6.741-65.663-18.438l0.552 0.314c-12.239-8.159-16.772-4.533-16.772 13.599 3.475 6.387 8.391 11.594 14.334 15.312l0.171 0.1c20.227 11.599 44.466 18.439 70.302 18.439 28.026 0 54.172-8.049 76.252-21.96l-0.593 0.349c24.194-14.889 40.083-41.225 40.083-71.272 0-4.766-0.4-9.438-1.167-13.985l0.068 0.49c0-11.332 0-23.118-2.72-33.091-2.213-12.138-9.601-22.208-19.747-28l-0.198-0.104c-10.879 0-12.239 9.973-13.146 17.679-1.366 3.738-2.156 8.054-2.156 12.554 0 8.815 3.032 16.922 8.109 23.335l-0.060-0.079z" />
<glyph unicode="&#xe945;" horiz-adv-x="1044" d="M479.136 634.532c0 7.706 6.346 12.239 9.519 18.132 11.559 18.445 18.586 40.768 19.037 64.699l0.002 0.122c0.073 1.224 0.115 2.654 0.115 4.095 0 40.306-32.675 72.981-72.981 72.981-0.519 0-1.036-0.005-1.552-0.016l0.077 0.001c-15.865 0-33.544-3.626-42.157 16.319 8.367 9.804 20.735 15.981 34.546 15.981 2.527 0 5.006-0.207 7.42-0.604l-0.263 0.036c57.157-2.727 102.466-49.731 102.466-107.317 0-14.413-2.838-28.163-7.986-40.721l0.26 0.716c-6.767-22.779-19.569-42.032-36.554-56.526l-0.163-0.136c-5.617 1.891-9.871 6.445-11.307 12.12l-0.026 0.119z" />
<glyph unicode="&#xe946;" horiz-adv-x="1044" d="M534.438 309.064c7.344 11.51 20.046 19.033 34.506 19.033 7.488 0 14.505-2.017 20.536-5.538l-0.194 0.104c56.248-19.96 104.264-42.438 149.687-68.881l-4.179 2.246c3.789-1.713 6.911-3.378 9.918-5.212l-0.399 0.226c19.039-14.052 19.039-20.398 0-36.264-21.46 27.503-51.707 47.269-86.471 55.11l-1.015 0.192c-40.797 10.879-80.687 25.838-120.577 38.53z" />
<glyph unicode="&#xe947;" horiz-adv-x="1044" d="M479.136 634.532c5.164-2.564 9.152-6.847 11.277-12.084l0.056-0.155c2.365-43.636 7.215-84.122 14.499-123.755l-0.9 5.898c0-8.159 0-12.239-7.253-14.052-6.411 0.613-11.603 5.191-13.124 11.229l-0.022 0.103c-6.566 32.247-12.030 71.81-15.187 112.022l-0.225 3.569c-0.083 0.601-0.131 1.296-0.131 2.002 0 6.942 4.59 12.812 10.901 14.741l0.109 0.029z" />
<glyph unicode="&#xe948;" horiz-adv-x="1044" d="M149.588 150.41c-3.381-5.451-5.385-12.063-5.385-19.143 0-4.012 0.643-7.874 1.833-11.487l-0.074 0.26c2.663-6.741 4.206-14.55 4.206-22.719 0-3.018-0.211-5.987-0.618-8.893l0.038 0.335c-6.228 0.346-11.441 4.34-13.563 9.867l-0.036 0.106c-5.336 10.243-8.466 22.369-8.466 35.226 0 26.502 13.3 49.898 33.59 63.877l0.261 0.17c29.94 24.868 68.774 39.959 111.133 39.959 1.727 0 3.448-0.025 5.163-0.075l-0.252 0.006c7.706-0.271 14.854-2.423 21.071-6.009l-0.219 0.117c0-13.599-6.799-16.772-18.585-17.225s-29.011 0-45.33-3.173c-17.169-1.273-32.067-10.019-41.593-22.962l-0.11-0.157v-3.173c-15.775-10.711-29.562-22.195-42.136-34.883l-0.021-0.021z" />
<glyph unicode="&#xe949;" horiz-adv-x="1044" d="M397.089 601.441c7.253 0 14.506 0 17.225-9.519 8.432-22.782 15.676-49.918 20.457-77.894l0.395-2.793c0-9.066 3.173-19.039-10.879-23.118-8.613 5.893 0 18.585-9.973 25.385-5.041 27.758-11.011 51.388-18.368 74.399l1.142-4.137c0 6.346-6.799 11.786 0 17.679z" />
<glyph unicode="&#xe94a;" horiz-adv-x="1044" d="M268.352 62.47c-4.323-0.643-9.312-1.011-14.388-1.011-37.467 0-70.257 20.025-88.252 49.955l-0.259 0.465c-13.146 37.624-8.613 49.863 28.104 76.154v0c2.854 0.295 6.167 0.464 9.519 0.464 16.391 0 31.841-4.027 45.414-11.147l-0.538 0.257c26.267-11.152 44.355-36.729 44.355-66.531 0-9.845-1.974-19.229-5.548-27.778l0.176 0.476-18.585-21.305z" />
<glyph unicode="&#xe94b;" horiz-adv-x="1044" d="M930.167 241.069c0-0.123 0.001-0.268 0.001-0.413 0-12.674-2.158-24.844-6.128-36.163l0.234 0.766c-9.71-18.076-28.485-30.159-50.082-30.159-3.123 0-6.187 0.253-9.173 0.739l0.327-0.044c-12.933 2.201-24.147 8.377-32.618 17.205l-0.019 0.020c-7.181 9.078-11.519 20.691-11.519 33.317 0 22.162 13.365 41.203 32.475 49.502l0.349 0.135c4.784 1.237 10.276 1.947 15.934 1.947 26.221 0 48.881-15.249 59.594-37.363l0.172-0.394z" />
<glyph unicode="&#xe94c;" horiz-adv-x="1044" d="M448.765 447.32c3.173 5.44 5.893 9.973 14.052 9.973 1.361 0.098 2.949 0.153 4.55 0.153 37.302 0 67.541-30.239 67.541-67.541 0-0.532-0.006-1.063-0.018-1.592l0.001 0.079c-0.191-12.638-2.839-24.607-7.486-35.52l0.233 0.616c-4.986-13.146-15.412-12.239-24.931-9.519-23.005 7.473-42.998 17.794-60.912 30.802l0.623-0.431c-26.745 21.758-23.118 50.316 6.346 72.074z" />
<glyph unicode="&#xe94d;" horiz-adv-x="1044" d="M398.902 765.988c6.912 5.078 14.853 9.366 23.361 12.48l0.664 0.213c5.094 1.943 10.984 3.067 17.138 3.067 27.288 0 49.409-22.121 49.409-49.409 0-3.168-0.298-6.266-0.868-9.268l0.049 0.308c-0.379-3.853-1.18-7.389-2.364-10.743l0.098 0.317c-3.173-22.665-19.039-27.651-38.077-28.558-1.697-0.183-3.666-0.288-5.66-0.288-23.044 0-42.823 13.98-51.318 33.921l-0.138 0.364c-6.346 17.225-14.506 35.357 7.706 48.956z" />
<glyph unicode="&#xe94e;" horiz-adv-x="1044" d="M448.765 447.32c0-6.799-4.533-9.519-8.159-13.599-6.432-5.978-10.443-14.485-10.443-23.929 0-11.080 5.522-20.871 13.963-26.771l0.106-0.070c18.318-15.303 40.388-26.774 64.6-32.851l1.128-0.24c1.296-0.253 2.787-0.398 4.311-0.398 5.193 0 9.993 1.679 13.888 4.524l-0.067-0.047c9.973 0 19.039-4.533 17.225-16.772s-9.066-14.959-19.492-16.319c-2.619-0.3-5.655-0.471-8.73-0.471-17.053 0-32.878 5.261-45.939 14.248l0.274-0.178c-28.18 9.43-50.662 29.403-63.182 55.118l-0.28 0.637c-1.74 5.181-2.744 11.148-2.744 17.349 0 19.583 10.014 36.826 25.201 46.89l0.208 0.13c9.973 5.893 15.412 0 18.585-7.706z" />
<glyph unicode="&#xe94f;" horiz-adv-x="1044" d="M398.902 765.988c-3.619-6.878-5.742-15.028-5.742-23.675 0-28.54 23.136-51.676 51.676-51.676 16.973 0 32.035 8.183 41.455 20.818l0.097 0.137c7.706-21.305-5.893-34.904-19.039-45.33-9.682-5.457-21.256-8.672-33.581-8.672-17.352 0-33.216 6.373-45.379 16.905l0.087-0.074c-11.663 12.316-18.835 28.989-18.835 47.336 0 12.423 3.288 24.077 9.040 34.142l-0.178-0.338c3.69 7.069 10.967 11.811 19.351 11.811 0.368 0 0.734-0.009 1.098-0.027l-0.051 0.002z" />
<glyph unicode="&#xe950;" horiz-adv-x="1044" d="M854.467 276.427c-16.478-12.979-26.962-32.932-26.962-55.333 0-9.98 2.081-19.475 5.833-28.073l-0.176 0.453c-1.789-0.329-3.848-0.518-5.951-0.518-16.154 0-29.711 11.118-33.436 26.119l-0.050 0.237c-1.002 4.838-1.576 10.398-1.576 16.092s0.574 11.254 1.666 16.625l-0.091-0.533c8.613 28.104 28.558 36.717 59.382 24.931z" />
<glyph unicode="&#xe951;" horiz-adv-x="1044" d="M287.391 83.775c8.159 40.344-16.319 66.635-38.984 93.833 3.121 0.605 6.71 0.951 10.38 0.951 31.544 0 57.116-25.571 57.116-57.116 0-5.008-0.645-9.866-1.855-14.494l0.088 0.398c-3.099-12.53-13.678-21.882-26.623-23.109l-0.122-0.009z" />
<glyph unicode="&#xe952;" horiz-adv-x="1044" d="M194.012 189.394c-18.294-13.607-30.017-35.161-30.017-59.453 0-5.923 0.697-11.683 2.013-17.203l-0.101 0.503c-14.052 9.066-5.44 27.198-15.865 38.077 6.457 20.268 23.837 35.219 45.050 38.046l0.28 0.031z" />
<glyph unicode="&#xe953;" horiz-adv-x="1044" d="M141.882 58.844c6.618-23.632 21.925-42.925 42.172-54.616l0.438-0.233c20.852-19.039 20.398-34.904-3.626-49.863-8.815-4.793-19.162-9.246-29.931-12.765l-1.346-0.381c-6.685-2.637-14.429-4.165-22.529-4.165-15.875 0-30.38 5.871-41.459 15.561l0.073-0.063c-40.328 31.248-68.028 77.118-75.134 129.531l-0.113 1.019c0 14.052-4.080 28.558-4.986 42.61 0.216 62.91 24.856 120.024 64.926 162.392l-0.104-0.111c42.52 48.448 101.503 81.541 168.135 90.506l1.398 0.154c22.665 4.986 45.33 3.626 70.714 7.253 12.239 0 18.132 4.080 21.305 16.772 2.692 14.174 4.231 30.479 4.231 47.143s-1.54 32.968-4.485 48.779l0.253-1.636c-1.681 17.101-4.399 32.531-8.177 47.538l0.471-2.209c-8.156 26.647-21.218 49.669-38.26 69.115l0.183-0.214c-40.904 42.709-72.131 95.028-89.942 153.208l-0.718 2.726c-2.177 8.354-3.427 17.944-3.427 27.827 0 15.112 2.923 29.541 8.234 42.753l-0.274-0.771c22.806 58.722 72.651 102.432 133.827 116.259l1.256 0.239c21.127 5.127 45.382 8.068 70.324 8.068 9.873 0 19.638-0.461 29.275-1.362l-1.234 0.093c47.413-4.056 86.852-34.397 103.961-76.238l0.298-0.823c10.879-34.904-6.346-55.302-41.703-45.33-11.081 1.286-20.983 5.518-29.14 11.883l0.129-0.097c-7.645 6.079-17.438 9.752-28.090 9.752-6.218 0-12.144-1.252-17.538-3.518l0.299 0.111c-19.657-3.698-37.156-10.645-52.785-20.323l0.656 0.378c-5.664-3.524-9.586-9.391-10.415-16.212l-0.011-0.107c-3.706-15.949-7.909-29.423-12.964-42.472l0.725 2.128c-1.973-5.421-3.415-11.724-4.054-18.263l-0.025-0.322c-1.704-10.296-4.225-19.441-7.582-28.172l0.329 0.974c-1.566-3.034-2.484-6.623-2.484-10.426s0.918-7.391 2.545-10.556l-0.061 0.13c8.672-16.295 19.409-30.213 32.094-42.073l0.090-0.084c14.506-18.585 35.357-34.904 31.278-63.008s16.319-58.022 18.132-90.66c0.36-2.636 0.565-5.682 0.565-8.777 0-17.987-6.938-34.353-18.283-46.569l0.039 0.043c-14.92-13.793-24.231-33.465-24.231-55.313 0-12.937 3.265-25.112 9.016-35.745l-0.197 0.398c4.654-7.689 7.409-16.979 7.409-26.912 0-17.917-8.962-33.742-22.647-43.235l-0.174-0.114c-29.464-22.212-45.33-56.209-77.514-77.967-6.603 0.82-14.245 1.287-21.997 1.287-44.655 0-85.684-15.521-117.988-41.464l0.368 0.286c-19.75-12.346-32.694-33.972-32.694-58.621 0-17.538 6.553-33.546 17.344-45.709l-0.062 0.071c3.236-3.775 5.206-8.719 5.206-14.122 0-1.908-0.245-3.758-0.707-5.521l0.034 0.151z" />
<glyph unicode="&#xe954;" horiz-adv-x="1044" d="M340.88 775.508c4.533 14.052 3.173 31.278 17.679 41.25 9.973 0 17.225 11.332 28.104 11.332 10.951-3.798 24.788-7.554 38.93-10.478l2.32-0.401c0.332 0.005 0.725 0.007 1.118 0.007 48.568 0 87.94-39.372 87.94-87.94 0-11.588-2.241-22.652-6.314-32.783l0.21 0.592c-7.184-20.751-16.385-38.738-27.695-55.159l0.497 0.764c-4.83-7.097-7.712-15.858-7.712-25.293 0-2.271 0.167-4.504 0.49-6.685l-0.030 0.247c2.84-42.898 10.756-82.903 23.192-120.862l-0.981 3.458c-0.148-0.405-0.233-0.872-0.233-1.36s0.085-0.955 0.242-1.388l-0.009 0.028c51.223-7.253 67.995-45.33 76.607-90.66 0-9.066 3.626-15.865 13.146-19.039 51.676-19.492 100.632-45.33 153.215-61.649 6.251-2.862 13.559-4.531 21.258-4.531 2.414 0 4.79 0.164 7.117 0.482l-0.27-0.030c11.332-8.159 21.305 0 31.731 2.72 15.105 6.852 32.754 10.845 51.336 10.845 24.432 0 47.251-6.903 66.614-18.865l-0.546 0.314c19.692-10.796 32.82-31.383 32.82-55.036 0-7.236-1.229-14.185-3.489-20.65l0.134 0.439c-1.363-1.061-3.1-1.701-4.986-1.701s-3.623 0.64-5.005 1.715l0.018-0.014c-15.516 17.421-38.010 28.34-63.054 28.34-2.217 0-4.415-0.086-6.589-0.254l0.288 0.018c-37.624 7.253-57.569-5.893-57.569-38.53-0.091-0.951-0.143-2.056-0.143-3.173 0-19.527 15.83-35.357 35.357-35.357 0.050 0 0.1 0 0.15 0h-0.008c11.368-7.844 25.441-12.528 40.608-12.528 20.585 0 39.155 8.63 52.288 22.469l0.030 0.032c6.561-4.668 11.385-11.405 13.541-19.247l0.057-0.245c-12.88-30.455-42.508-51.436-77.036-51.436-4.811 0-9.528 0.407-14.116 1.19l0.493-0.069c-50.155 2.45-92.429 33.764-110.748 77.586l-0.31 0.835c9.066 18.585 0 29.011-15.412 38.984-41.379 24.248-89.79 47.293-140.201 66.249l-6.667 2.199c-5.284 1.424-11.35 2.242-17.607 2.242-13.613 0-26.323-3.872-37.086-10.574l0.298 0.173c-17.428-12.709-39.27-20.334-62.893-20.334-14.757 0-28.819 2.975-41.619 8.359l0.707-0.264c-1.953 1.094-4.286 1.738-6.77 1.738-5.594 0-10.424-3.268-12.686-8l-0.036-0.085c-14.379-20.746-30.511-38.749-48.612-54.555l-0.344-0.294c-8.667-6.517-14.214-16.78-14.214-28.339 0-2.322 0.224-4.591 0.651-6.788l-0.036 0.223c-9.519-3.626-18.585 12.692-25.838 0s2.72-17.679 6.346-26.291c6.219-13.308 9.848-28.895 9.848-45.33s-3.629-32.022-10.13-46.003l0.281 0.674c-9.207-22.243-30.739-37.607-55.859-37.607-3.647 0-7.219 0.324-10.687 0.944l0.365-0.054c-6.346 14.052 4.080 20.852 12.692 28.558 14.56 5.722 24.68 19.656 24.68 35.955 0 1.386-0.073 2.755-0.216 4.103l0.014-0.168c0.052 0.816 0.082 1.77 0.082 2.731 0 19.026-11.721 35.313-28.336 42.037l-0.304 0.109c-10.286 5.312-22.386 8.612-35.212 9.062l-0.146 0.004c-20.441 2.067-39.172 7.369-56.368 15.406l1.066-0.448c2.72 23.571 22.665 24.478 38.984 29.464 25.028 2.273 48.094 7.897 69.678 16.454l-1.684-0.589c24.024 31.646 49.905 59.54 78.271 84.695l0.603 0.525c9.552 7.707 15.611 19.412 15.611 32.532 0 4.573-0.736 8.975-2.096 13.092l0.084-0.295c-0.803 5.087-2.226 9.66-4.213 13.917l0.133-0.318c-7.080 11.133-11.284 24.698-11.284 39.245 0 22.809 10.335 43.204 26.578 56.758l0.118 0.096c11.207 11.165 18.142 26.611 18.142 43.678 0 2.659-0.168 5.28-0.495 7.85l0.032-0.305c6.799 0 8.613-4.986 17.225-14.506-4.050 39.628-16.505 75.64-35.551 107.229l0.647-1.157c4.080 5.893 0 11.332 0 18.132-11.77 18.872-24.947 35.221-39.846 49.819l-0.045 0.044c-10.306 9.041-17.923 20.916-21.642 34.407l-0.117 0.497c-0.92 2.496-1.453 5.379-1.453 8.386s0.532 5.89 1.508 8.559l-0.055-0.173 6.799 29.011c4.533 4.986 0 11.786 4.533 17.225z" />
<glyph unicode="&#xe955;" horiz-adv-x="1044" d="M259.74 48.418c41.345 1.234 74.392 35.045 74.392 76.575 0 12.934-3.205 25.119-8.865 35.805l0.201-0.416c-3.173 9.066-8.159 16.772-12.239 25.385s-7.706 18.132 3.173 24.478c2.666 1.973 6.019 3.158 9.648 3.158 6.185 0 11.566-3.441 14.334-8.512l0.043-0.085c2.266-3.173 5.44-5.44 7.706-9.066 11.894-19.794 18.93-43.68 18.93-69.211 0-22.553-5.49-43.824-15.207-62.549l0.357 0.756c-7.704-16.799-21.287-29.794-38.055-36.548l-0.475-0.169c-18.55-10.107-40.626-16.050-64.091-16.050-38.344 0-72.981 15.869-97.702 41.398l-0.035 0.036c-2.869 2.004-6.169 3.693-9.692 4.903l-0.281 0.084c-4.986 3.626-3.173 10.879-5.44 16.319-7.253 21.305-23.118 42.61 0 65.275 20.398-5.44 10.426-28.558 22.665-38.077 16.273-24.942 42.796-42.030 73.449-45.292l0.438-0.038c9.519-3.173 19.492 0 26.745-7.706z" />
<glyph unicode="&#xe956;" horiz-adv-x="1044" d="M945.579 234.723c0.784 4.127 1.232 8.873 1.232 13.725 0 42.559-34.501 77.061-77.061 77.061-1.55 0-3.089-0.046-4.616-0.136l0.211 0.010c-3.134 0.267-6.781 0.419-10.465 0.419-25.12 0-48.588-7.070-68.524-19.329l0.568 0.325c-13.146-8.613-17.225-4.533-17.679 13.599 3.437 6.94 8.727 12.521 15.227 16.221l0.186 0.097c20.801 11.926 45.728 18.96 72.297 18.96 29.36 0 56.714-8.588 79.686-23.39l-0.582 0.351c25.121-15.238 41.649-42.437 41.649-73.496 0-5.264-0.475-10.418-1.384-15.42l0.079 0.523c-0.444-12.59-1.582-24.476-3.388-36.14l0.215 1.689c-2.050-12.445-9.683-22.766-20.19-28.455l-0.208-0.103c-11.786 0-13.146 9.973-13.146 18.585-1.437 3.826-2.268 8.249-2.268 12.865 0 8.879 3.075 17.039 8.219 23.474l-0.058-0.075z" />
<glyph unicode="&#xe957;" horiz-adv-x="1044" d="M478.229 642.691c0 8.159 6.799 12.692 9.973 19.492 12.124 19.047 19.493 42.162 19.943 66.967l0.002 0.121c0.149 1.777 0.234 3.846 0.234 5.934 0 41.558-33.689 75.247-75.247 75.247-0.879 0-1.755-0.015-2.628-0.045l0.127 0.003c-16.772 0-34.904-3.626-45.33 17.225 8.377 10.386 21.102 16.974 35.366 16.974 3.532 0 6.97-0.404 10.27-1.168l-0.306 0.060c59.194-2.988 106.058-51.71 106.058-111.378 0-15.079-2.993-29.458-8.417-42.577l0.271 0.74c-6.466-24.027-19.86-44.329-37.884-59.227l-0.193-0.155c-5.847 1.625-10.4 6.028-12.204 11.661l-0.035 0.125z" />
<glyph unicode="&#xe958;" horiz-adv-x="1044" d="M535.345 304.078c7.396 11.8 20.329 19.53 35.069 19.53 6.892 0 13.39-1.69 19.101-4.679l-0.227 0.108c58.356-20.252 108.346-43.519 155.495-71.115l-4.093 2.214c3.737-1.844 6.853-3.653 9.841-5.641l-0.321 0.201c19.945-14.506 19.945-21.305 0-37.624-22.089 28.84-53.469 49.591-89.611 57.821l-1.049 0.201c-42.61 11.332-83.407 26.291-125.564 39.437z" />
<glyph unicode="&#xe959;" horiz-adv-x="1044" d="M478.229 642.691c5.226-2.844 9.312-7.222 11.718-12.524l0.068-0.168c2.212-45.339 7.232-87.713 14.957-129.136l-0.905 5.839c0-8.613 0-13.146-7.253-14.506-6.848 0.136-12.486 5.15-13.587 11.703l-0.011 0.082c-7 34.147-12.633 75.598-15.676 117.766l-0.189 3.265c-0.131 0.767-0.206 1.65-0.206 2.55 0 7.055 4.605 13.035 10.973 15.097l0.112 0.031z" />
<glyph unicode="&#xe95a;" horiz-adv-x="1044" d="M135.989 139.531c-3.544-5.675-5.645-12.568-5.645-19.951 0-4.379 0.739-8.585 2.1-12.501l-0.081 0.267c2.699-6.861 4.263-14.808 4.263-23.12 0-3.197-0.232-6.341-0.679-9.414l0.042 0.35c-0.426-0.042-0.92-0.066-1.421-0.066-6.582 0-12.2 4.126-14.41 9.932l-0.035 0.106c-5.639 10.765-8.948 23.516-8.948 37.041 0 27.852 14.033 52.426 35.414 67.038l0.279 0.18c30.981 25.458 71.040 40.892 114.703 40.892 2.066 0 4.123-0.035 6.172-0.103l-0.298 0.008c7.861-0.191 15.177-2.354 21.525-6.010l-0.22 0.117c0-14.052-7.253-17.679-19.039-18.132l-45.33-3.626c-17.67-0.921-33.107-9.74-42.955-22.966l-0.108-0.152c-0.028-0.541-0.044-1.175-0.044-1.813s0.016-1.272 0.048-1.902l-0.004 0.089c-17.006-11.082-31.824-22.876-45.44-35.916l0.111 0.105z" />
<glyph unicode="&#xe95b;" horiz-adv-x="1044" d="M393.009 609.601c7.706 0 14.959 0 17.679-9.973 8.873-23.864 16.436-52.225 21.364-81.481l0.394-2.833c0-9.066 3.173-19.945-11.332-24.025-9.066 6.346 0 20.398-10.426 27.198-4.672 28.332-10.66 52.92-18.272 76.782l1.047-3.801c0 6.346-6.799 12.692 0 18.585z" />
<glyph unicode="&#xe95c;" horiz-adv-x="1044" d="M329.548 729.271v-16.772c-2.77 1.802-4.576 4.883-4.576 8.386s1.806 6.584 4.537 8.363l0.038 0.023z" />
<glyph unicode="&#xe95d;" horiz-adv-x="1044" d="M340.88 775.508c0-6.799 0-12.692-4.533-17.225 0 5.893 0 12.692 4.533 17.225z" />
<glyph unicode="&#xe95e;" horiz-adv-x="1044" d="M259.74 48.418c-4.81-0.773-10.355-1.214-16.003-1.214-38.44 0-72.105 20.448-90.71 51.060l-0.265 0.47c-13.146 38.984-8.613 52.129 29.918 80.234h-1.36c2.47 0.2 5.346 0.315 8.249 0.315 17.468 0 33.971-4.134 48.583-11.477l-0.623 0.284c27.166-11.755 45.828-38.327 45.828-69.258 0-10.164-2.015-19.856-5.667-28.701l0.183 0.5c-6.346-7.706-13.146-14.959-19.492-22.212z" />
<glyph unicode="&#xe95f;" horiz-adv-x="1044" d="M945.579 234.723c0.013-0.607 0.020-1.323 0.020-2.040 0-12.271-2.167-24.036-6.139-34.932l0.226 0.709c-9.649-18.677-28.814-31.224-50.91-31.224-3.474 0-6.876 0.31-10.179 0.904l0.347-0.052c-13.436 1.938-25.156 8.16-33.985 17.213l-0.012 0.012c-7.532 9.531-12.081 21.721-12.081 34.973 0 23.209 13.953 43.158 33.929 51.917l0.364 0.142c5.085 1.353 10.923 2.13 16.942 2.13 27.216 0 50.723-15.885 61.754-38.889l0.178-0.412z" />
<glyph unicode="&#xe960;" horiz-adv-x="1044" d="M446.498 448.227c3.173 5.44 5.893 10.426 14.506 10.879 1.087 0.059 2.36 0.093 3.641 0.093 39.305 0 71.168-31.863 71.168-71.168 0-0.511-0.005-1.021-0.016-1.529l0.001 0.076c-0.114-12.983-2.94-25.277-7.936-36.383l0.23 0.573c-4.533-13.146-15.412-12.239-25.385-9.519-24.054 7.623-44.972 18.424-63.603 32.149l0.595-0.418c-27.651 22.665-24.478 52.129 6.799 74.794z" />
<glyph unicode="&#xe961;" horiz-adv-x="1044" d="M394.369 778.681c7.302 4.707 15.709 8.707 24.624 11.574l0.76 0.211c5.389 2.127 11.631 3.36 18.162 3.36 28.039 0 50.769-22.73 50.769-50.769 0-3.434-0.341-6.788-0.991-10.030l0.054 0.324c0-3.626 0-7.253-2.266-10.879-3.626-23.118-19.945-28.558-38.984-29.011-2.025-0.253-4.37-0.397-6.748-0.397-23.755 0-44.15 14.388-52.945 34.926l-0.143 0.375c-6.346 19.492-14.959 38.53 7.706 50.316z" />
<glyph unicode="&#xe962;" horiz-adv-x="1044" d="M446.498 448.227c0-6.799-4.986-9.973-8.613-13.599-6.803-6.312-11.047-15.301-11.047-25.281 0-11.62 5.753-21.896 14.566-28.136l0.107-0.072c18.996-15.779 41.799-27.695 66.788-34.185l1.206-0.266c1.467-0.338 3.152-0.532 4.882-0.532 5.174 0 9.943 1.734 13.758 4.652l-0.055-0.040c10.426 0 19.945-4.986 18.132-16.772-2.054-9.489-10.086-16.596-19.882-17.222l-0.064-0.003c-2.46-0.253-5.315-0.398-8.204-0.398-17.943 0-34.584 5.575-48.285 15.087l0.279-0.184c-29.296 9.71-52.634 30.537-65.442 57.358l-0.286 0.665c-1.883 5.492-2.971 11.819-2.971 18.401 0 20.227 10.27 38.055 25.879 48.555l0.209 0.133c9.973 6.346 16.319 0 19.492-8.159z" />
<glyph unicode="&#xe963;" horiz-adv-x="1044" d="M394.369 778.681c-3.779-7.216-5.997-15.763-5.997-24.828 0-16.765 7.585-31.759 19.51-41.738l0.085-0.070c8.886-6.821 20.164-10.932 32.403-10.932 18.014 0 33.947 8.904 43.64 22.552l0.112 0.165c8.159-22.665-6.346-36.717-19.945-48.503-10.059-5.777-22.116-9.184-34.969-9.184-18.087 0-34.598 6.747-47.153 17.862l0.075-0.065c-12.14 12.806-19.605 30.148-19.605 49.233 0 12.89 3.405 24.984 9.364 35.432l-0.185-0.352c4.379 6.422 11.66 10.584 19.913 10.584 0.97 0 1.926-0.057 2.865-0.169l-0.114 0.011z" />
<glyph unicode="&#xe964;" horiz-adv-x="1044" d="M867.159 270.987c-17.176-13.567-28.099-34.392-28.099-57.77 0-10.409 2.166-20.313 6.071-29.284l-0.184 0.474c-1.84-0.331-3.958-0.52-6.121-0.52-16.831 0-30.983 11.466-35.073 27.012l-0.056 0.253c-1.158 5.109-1.821 10.976-1.821 16.999s0.664 11.89 1.921 17.533l-0.1-0.534c8.613 29.011 29.464 38.077 61.195 25.838z" />
<glyph unicode="&#xe965;" horiz-adv-x="1044" d="M278.778 70.629c8.613 41.25-16.772 68.901-40.797 97.459 3.311 0.655 7.119 1.030 11.013 1.030 32.796 0 59.382-26.586 59.382-59.382 0-5.362-0.711-10.557-2.043-15.498l0.095 0.416c-2.711-13.261-13.91-23.224-27.57-24.021l-0.081-0.004z" />
<glyph unicode="&#xe966;" horiz-adv-x="1044" d="M181.319 179.421c-18.803-14.386-30.809-36.835-30.809-62.088 0-6.603 0.821-13.014 2.366-19.137l-0.115 0.538c-14.506 9.973-5.893 29.011-16.319 40.344 6.558 20.601 23.758 35.989 44.976 39.837l0.354 0.053z" />
<glyph unicode="&#xe967;" horiz-adv-x="1044" d="M195.371-12.324c-3.856-0.437-8.325-0.687-12.852-0.687-54.727 0-100.938 36.46-115.669 86.414l-0.216 0.853c-10.426 61.649 42.61 118.764 123.75 133.27h11.332l153.215 163.187c-5.754 9.935-10.028 21.514-12.15 33.828l-0.089 0.623c-0.567 4.432-0.89 9.56-0.89 14.763 0 47.132 26.543 88.065 65.497 108.665l0.668 0.322-24.025 135.989c-52.064 7.2-93.346 46.034-104.113 96.196l-0.146 0.81c-0.937 5.453-1.473 11.734-1.473 18.14 0 25.074 8.209 48.231 22.086 66.929l-0.214-0.302c24.648 33.887 61.647 57.503 104.259 64.25l0.906 0.118c10.567 2.948 22.701 4.643 35.232 4.643 62.899 0 115.824-42.703 131.365-100.698l0.217-0.951c0.698-4.93 1.097-10.625 1.097-16.412 0-47.471-26.827-88.676-66.148-109.281l-0.678-0.324 24.025-135.989c52.589-7.951 93.985-47.817 104.127-98.933l0.131-0.793c0.998-5.451 1.568-11.725 1.568-18.132s-0.57-12.68-1.663-18.773l0.095 0.641 206.251-96.552c10.921 4.612 23.706 8.389 36.989 10.721l1.088 0.158c80.234 13.599 151.855-25.838 163.187-90.66s-45.33-126.017-123.75-139.162-151.855 25.838-162.734 90.66c-1.057 5.452-1.662 11.721-1.662 18.132s0.605 12.68 1.761 18.754l-0.099-0.623-198.544 90.66c-14.049-7.075-30.349-12.45-47.509-15.277l-0.994-0.135c-7.904-1.356-17.007-2.132-26.291-2.132s-18.388 0.775-27.249 2.265l0.957-0.133-127.83-135.989c11.501-12.175 19.682-27.602 23.025-44.758l0.093-0.572c0.647-4.169 1.016-8.978 1.016-13.874 0-20.24-6.317-39.004-17.086-54.43l0.204 0.309c-25.883-33.855-64.171-57.093-107.961-62.918l-0.83-0.090c-9.344-1.637-20.159-2.623-31.186-2.719l-0.091-0.001zM162.281 91.028c9.76-4.916 21.272-7.794 33.456-7.794 5.978 0 11.794 0.693 17.373 2.003l-0.513-0.101c17.893 1.768 33.646 9.757 45.314 21.742l0.016 0.016c-4.177 2.494-9.041 4.385-14.22 5.393l-0.286 0.046-11.332 2.72h-25.838c-17.665-2.648-32.926-11.373-43.897-23.94l-0.073-0.085zM861.266 221.124l-2.72-3.173c-4.533-4.986-6.346-9.066-6.346-10.879 9.733-8.497 22.552-13.678 36.581-13.678 5.706 0 11.212 0.857 16.397 2.45l-0.395-0.104c31.278 5.44 45.33 23.571 45.33 28.558-9.809 8.353-22.627 13.434-36.632 13.434-6.521 0-12.784-1.101-18.615-3.129l0.398 0.12c-11.275-2.15-21.312-6.092-30.32-11.559l0.403 0.227zM453.298 405.163l8.159-3.173c6.656-2.486 14.347-3.925 22.374-3.925 4.433 0 8.763 0.439 12.95 1.275l-0.419-0.070c12.592 1.947 23.797 6.757 33.299 13.745l-0.209-0.146 0.907 3.173 4.533 5.44c3.655 4.070 5.891 9.48 5.893 15.412v0c0 10.879-22.212 22.212-48.503 20.852h-6.346l-11.332-3.173c-24.931-6.799-39.437-23.571-37.624-34.451 1.683-5.045 5.050-9.147 9.42-11.732l0.099-0.054zM435.166 818.118h-14.052c-17.065-2.143-31.821-10.642-42.070-23.010l-0.087-0.108c-3.025-3.357-4.876-7.824-4.876-12.723 0-1.272 0.125-2.515 0.363-3.717l-0.020 0.121c0-11.332 21.758-21.758 45.33-20.398h17.225c24.931 7.253 40.344 24.025 38.53 34.904s-16.319 24.931-40.344 24.931z" />
<glyph unicode="&#xe968;" horiz-adv-x="1044" d="M271.979 64.283c39.761 1.023 71.603 33.499 71.603 73.411 0 12.617-3.182 24.491-8.787 34.863l0.192-0.389c-3.952 9.722-7.905 17.772-12.332 25.515l0.546-1.037c-4.533 8.613-7.253 17.225 2.72 23.571 2.618 1.979 5.927 3.169 9.514 3.169 5.747 0 10.781-3.056 13.564-7.632l0.040-0.070c2.266-3.626 4.986-5.44 7.253-8.613 12.362-19.584 19.698-43.414 19.698-68.957 0-20.94-4.93-40.729-13.693-58.269l0.342 0.755c-7.235-16.284-19.98-29.029-35.817-36.086l-0.447-0.178c-17.936-9.776-39.284-15.525-61.974-15.525-37.262 0-70.903 15.504-94.825 40.412l-0.042 0.044c-2.59 2.063-5.594 3.752-8.848 4.918l-0.218 0.068c-4.986 3.626-3.173 10.426-5.44 15.412-6.799 20.852-22.212 41.703 0 62.555 19.945-4.986 10.426-27.198 21.758-36.717 15.729-24.509 41.37-41.481 71.128-45.278l0.493-0.051c9.066-2.72 19.039 0 25.838-7.706z" />
<glyph unicode="&#xe969;" horiz-adv-x="1044" d="M935.154 242.429c0.407 2.905 0.64 6.261 0.64 9.671 0 40.557-32.878 73.434-73.434 73.434-1.66 0-3.308-0.055-4.941-0.164l0.222 0.012c-3.172 0.284-6.862 0.446-10.59 0.446-24.058 0-46.541-6.741-65.663-18.438l0.552 0.314c-12.239-8.159-16.772-4.533-16.772 13.599 3.475 6.387 8.391 11.594 14.334 15.312l0.171 0.1c20.227 11.599 44.466 18.439 70.302 18.439 28.026 0 54.172-8.049 76.252-21.96l-0.593 0.349c24.194-14.889 40.083-41.225 40.083-71.272 0-4.766-0.4-9.438-1.167-13.985l0.068 0.49c0-11.332 0-23.118-2.72-33.091-2.213-12.138-9.601-22.208-19.747-28l-0.198-0.104c-10.879 0-12.239 9.973-13.146 17.679-1.366 3.738-2.156 8.054-2.156 12.554 0 8.815 3.032 16.922 8.109 23.335l-0.060-0.079z" />
<glyph unicode="&#xe96a;" horiz-adv-x="1044" d="M484.122 636.345c0 7.706 6.346 12.239 9.519 18.132 11.559 18.445 18.586 40.768 19.037 64.699l0.002 0.122c0.073 1.224 0.115 2.654 0.115 4.095 0 40.306-32.675 72.981-72.981 72.981-0.519 0-1.036-0.005-1.552-0.016l0.077 0.001c-15.865 0-33.544-3.626-42.157 16.319 8.367 9.804 20.735 15.981 34.546 15.981 2.527 0 5.006-0.207 7.42-0.604l-0.263 0.036c57.157-2.727 102.466-49.731 102.466-107.317 0-14.413-2.838-28.163-7.986-40.721l0.26 0.716c-6.767-22.779-19.569-42.032-36.554-56.526l-0.163-0.136c-5.617 1.891-9.871 6.445-11.307 12.12l-0.026 0.119z" />
<glyph unicode="&#xe96b;" horiz-adv-x="1044" d="M539.425 310.424c7.275 11.873 20.178 19.674 34.903 19.674 6.965 0 13.522-1.745 19.258-4.822l-0.218 0.107c56.248-19.96 104.264-42.438 149.687-68.881l-4.179 2.246c3.789-1.713 6.911-3.378 9.918-5.212l-0.399 0.226c19.039-14.052 19.039-20.398 0-36.264-21.46 27.503-51.707 47.269-86.471 55.11l-1.015 0.192c-40.797 10.879-80.687 25.838-120.577 38.53z" />
<glyph unicode="&#xe96c;" horiz-adv-x="1044" d="M484.122 636.345c5.164-2.564 9.152-6.847 11.277-12.084l0.056-0.155c2.365-43.636 7.215-84.122 14.499-123.755l-0.9 5.898c0-8.159 0-12.239-7.253-14.052-6.411 0.613-11.603 5.191-13.124 11.229l-0.022 0.103c-6.566 32.247-12.030 71.81-15.187 112.022l-0.225 3.569c-0.083 0.601-0.131 1.296-0.131 2.002 0 6.942 4.59 12.812 10.901 14.741l0.109 0.029z" />
<glyph unicode="&#xe96d;" horiz-adv-x="1044" d="M154.575 151.77c-3.381-5.451-5.385-12.063-5.385-19.143 0-4.012 0.643-7.874 1.833-11.487l-0.074 0.26c2.663-6.741 4.206-14.55 4.206-22.719 0-3.018-0.211-5.987-0.618-8.893l0.038 0.335c-0.332-0.025-0.718-0.040-1.108-0.040-6.052 0-11.289 3.488-13.81 8.563l-0.040 0.090c-5.336 10.243-8.466 22.369-8.466 35.226 0 26.502 13.3 49.898 33.59 63.877l0.261 0.17c29.94 24.868 68.774 39.959 111.133 39.959 1.727 0 3.448-0.025 5.163-0.075l-0.252 0.006c7.706-0.271 14.854-2.423 21.071-6.009l-0.219 0.117c0-13.599-6.799-16.772-18.585-17.225s-29.011 0-45.33-3.173c-17.169-1.273-32.067-10.019-41.593-22.962l-0.11-0.157v-3.173c-15.775-10.711-29.562-22.195-42.136-34.883l-0.021-0.021z" />
<glyph unicode="&#xe96e;" horiz-adv-x="1044" d="M402.075 603.255c7.253 0 14.506 0 17.225-9.519 8.462-22.928 15.709-50.223 20.464-78.364l0.388-2.777c0-9.066 3.173-19.039-10.879-23.118-8.613 5.893 0 18.585-9.973 25.385-4.861 27.711-10.681 51.363-17.888 74.4l1.116-4.139c0 6.346-6.799 11.786 0 17.679z" />
<glyph unicode="&#xe96f;" horiz-adv-x="1044" d="M271.979 64.283c-4.323-0.643-9.312-1.011-14.388-1.011-37.467 0-70.257 20.025-88.252 49.955l-0.259 0.465c-13.146 37.624-8.613 49.863 28.104 76.154v0c2.854 0.295 6.167 0.464 9.519 0.464 16.391 0 31.841-4.027 45.414-11.147l-0.538 0.257c26.267-11.152 44.355-36.729 44.355-66.531 0-9.845-1.974-19.229-5.548-27.778l0.176 0.476-18.585-21.305z" />
<glyph unicode="&#xe970;" horiz-adv-x="1044" d="M935.154 242.429c0-0.123 0.001-0.268 0.001-0.413 0-12.674-2.158-24.844-6.128-36.163l0.234 0.766c-9.71-18.076-28.485-30.159-50.082-30.159-3.123 0-6.187 0.253-9.173 0.739l0.327-0.044c-12.933 2.201-24.147 8.377-32.618 17.205l-0.019 0.020c-7.874 9.314-12.66 21.459-12.66 34.721 0 23.447 14.959 43.4 35.855 50.835l0.377 0.117c4.784 1.237 10.276 1.947 15.934 1.947 26.221 0 48.881-15.249 59.594-37.363l0.172-0.394z" />
<glyph unicode="&#xe971;" horiz-adv-x="1044" d="M453.298 448.68c3.173 5.44 5.893 9.973 14.052 9.973 1.361 0.098 2.949 0.153 4.55 0.153 37.302 0 67.541-30.239 67.541-67.541 0-0.532-0.006-1.063-0.018-1.592l0.001 0.079c-0.191-12.638-2.839-24.607-7.486-35.52l0.233 0.616c-4.986-13.146-15.412-12.239-24.931-9.519-23.005 7.473-42.998 17.794-60.912 30.802l0.623-0.431c-26.745 21.758-23.118 50.316 6.346 72.074z" />
<glyph unicode="&#xe972;" horiz-adv-x="1044" d="M403.888 767.802c7.042 4.475 15.169 8.184 23.802 10.71l0.676 0.169c5.094 1.943 10.984 3.067 17.138 3.067 27.288 0 49.409-22.121 49.409-49.409 0-3.168-0.298-6.266-0.868-9.268l0.049 0.308c-0.379-3.853-1.18-7.389-2.364-10.743l0.098 0.317c-3.173-22.665-19.039-27.651-38.077-28.558-1.697-0.183-3.666-0.288-5.66-0.288-23.044 0-42.823 13.98-51.318 33.921l-0.138 0.364c-6.346 17.225-14.506 35.357 7.706 48.956z" />
<glyph unicode="&#xe973;" horiz-adv-x="1044" d="M453.298 448.68c0-6.799-4.533-9.519-8.159-13.599-6.432-5.978-10.443-14.485-10.443-23.929 0-11.080 5.522-20.871 13.963-26.771l0.106-0.070c18.318-15.303 40.388-26.774 64.6-32.851l1.128-0.24c1.296-0.253 2.787-0.398 4.311-0.398 5.193 0 9.993 1.679 13.888 4.524l-0.067-0.047c9.973 0 19.039-4.533 17.225-16.772s-9.066-14.959-19.492-16.319c-2.619-0.3-5.655-0.471-8.73-0.471-17.053 0-32.878 5.261-45.939 14.248l0.274-0.178c-28.252 9.533-50.753 29.673-63.183 55.564l-0.279 0.645c-1.74 5.181-2.744 11.148-2.744 17.349 0 19.583 10.014 36.826 25.201 46.89l0.208 0.13c9.973 5.893 15.412 0 18.585-7.706z" />
<glyph unicode="&#xe974;" horiz-adv-x="1044" d="M403.888 767.802c-3.619-6.878-5.742-15.028-5.742-23.675 0-28.54 23.136-51.676 51.676-51.676 16.973 0 32.035 8.183 41.455 20.818l0.097 0.137c7.706-21.305-5.893-34.904-19.039-45.33-9.682-5.457-21.256-8.672-33.581-8.672-17.352 0-33.216 6.373-45.379 16.905l0.087-0.074c-11.379 12.253-18.362 28.727-18.362 46.831 0 12.079 3.108 23.432 8.569 33.303l-0.18-0.354c3.69 7.069 10.967 11.811 19.351 11.811 0.368 0 0.734-0.009 1.098-0.027l-0.051 0.002z" />
<glyph unicode="&#xe975;" horiz-adv-x="1044" d="M861.266 280.053c-16.478-12.979-26.962-32.932-26.962-55.333 0-9.98 2.081-19.475 5.833-28.073l-0.176 0.453c-1.789-0.329-3.848-0.518-5.951-0.518-16.154 0-29.711 11.118-33.436 26.119l-0.050 0.237c-1.002 4.838-1.576 10.398-1.576 16.092s0.574 11.254 1.666 16.625l-0.091-0.533c8.613 28.104 28.558 36.717 59.382 24.931z" />
<glyph unicode="&#xe976;" horiz-adv-x="1044" d="M292.377 85.135c8.159 40.344-16.319 66.635-38.984 93.833 2.551 0.404 5.492 0.634 8.487 0.634 31.544 0 57.116-25.571 57.116-57.116 0-4.893-0.615-9.643-1.773-14.175l0.086 0.395c-3.099-12.53-13.678-21.882-26.623-23.109l-0.122-0.009z" />
<glyph unicode="&#xe977;" horiz-adv-x="1044" d="M198.998 189.394c-18.294-13.607-30.017-35.161-30.017-59.453 0-5.923 0.697-11.683 2.013-17.203l-0.101 0.503c-14.052 9.066-5.44 27.198-15.865 38.077 6.457 20.268 23.837 35.219 45.050 38.046l0.28 0.031z" />
<glyph unicode="&#xe978;" horiz-adv-x="950" d="M105.35 11.852c-14.299 2.613-26.346 10.692-34.124 21.948l-0.115 0.176c11.265 12.241 18.172 28.647 18.172 46.665 0 2.116-0.095 4.209-0.282 6.276l0.019-0.267c0 113.778-11.588 227.029-23.177 340.28-13.169 121.679-26.864 242.831-35.292 365.037 1.008 9.185 1.582 19.836 1.582 30.622 0 20.667-2.11 40.842-6.127 60.319l0.331-1.92c-0.277 1.248-0.435 2.682-0.435 4.153 0 6.439 3.041 12.168 7.764 15.83l0.046 0.034c21.070 0 5.794-13.695 9.481-19.49 4.214 8.955 4.741 25.811 21.597 29.498 17.038 7.704 36.911 12.326 57.827 12.641l0.115 0.001h336.066c2.096 0.266 4.521 0.418 6.981 0.418 9.141 0 17.792-2.098 25.498-5.838l-0.348 0.152c6.676-5.153 10.935-13.158 10.935-22.158 0-1.663-0.145-3.291-0.424-4.874l0.024 0.168c-3.16-56.889 9.481-113.778 7.901-170.667-0.096-2.633-0.151-5.726-0.151-8.831 0-30.428 5.265-59.626 14.934-86.733l-0.561 1.803c6.412-6.834 13.297-13.050 20.664-18.666l0.406-0.297c10.845-6.703 23.994-10.676 38.070-10.676 3.479 0 6.901 0.243 10.25 0.712l-0.386-0.044c69.004 0 138.535 3.16 210.7 0 20.543 0 40.56-2.634 47.934-26.337 6.024-14.615 9.522-31.584 9.522-49.369 0-4.317-0.206-8.586-0.609-12.797l0.041 0.536c5.758-48.057 9.044-103.712 9.044-160.134 0-30.948-0.988-61.664-2.936-92.12l0.213 4.156c0.074-6.704 0.116-14.622 0.116-22.551 0-81.306-4.443-161.573-13.1-240.574l0.868 9.758c-1.204-4.209-2.82-7.881-4.857-11.271l0.117 0.209c-14.030-14.118-33.459-22.856-54.929-22.856-1.987 0-3.957 0.075-5.906 0.222l0.26-0.016c-13.024 0.306-28.368 0.481-43.753 0.481-55.607 0-110.683-2.278-165.138-6.747l7.146 0.472c-8.121-0.228-17.677-0.358-27.264-0.358-46.097 0-91.494 3.001-136.004 8.819l5.244-0.56c-30.036 6.643-64.536 10.449-99.926 10.449-19.172 0-38.082-1.117-56.67-3.289l2.259 0.215c-12.015-1.74-25.888-2.734-39.993-2.734-47.197 0-91.796 11.124-131.318 30.894l1.699-0.769z" />
<glyph unicode="&#xe979;" horiz-adv-x="950" d="M56.889 901.531l-15.802-32.132c0 13.695 0 22.65 0 32.132-2.034 4.963-3.214 10.724-3.214 16.76 0 5.514 0.985 10.798 2.789 15.685l-0.101-0.314c12.737 16.524 32.536 27.065 54.797 27.065 3.526 0 6.99-0.264 10.374-0.775l-0.381 0.047c68.477 0 136.955 0 205.432-3.16 57.942-4.741 110.617-1.58 168.033-1.58h39.506c10.429-9.654 16.937-23.415 16.937-38.697 0-1.026-0.029-2.045-0.087-3.057l0.006 0.14c0-86.914 8.955-173.827 10.008-260.214-0.384-4.5-1.705-8.619-3.765-12.265l0.078 0.15c7.901-21.597 25.811-20.543 44.247-19.49 53.605 5.73 115.795 8.998 178.749 8.998 4.381 0 8.758-0.016 13.132-0.047l-0.67 0.004c28.971 0 57.942-5.794 85.86-8.955 32.769-5.198 60.085-24.879 75.579-52.154l0.273-0.521c2.731-4.762 4.342-10.468 4.342-16.551 0-1.035-0.047-2.059-0.138-3.069l0.009 0.13c0-158.025 10.008-316.049 7.374-474.074 0.214-2.519 0.336-5.452 0.336-8.413 0-46.438-30.046-85.858-71.758-99.881l-0.743-0.217c-12.965-7.579-28.547-15.345-44.639-22.139l-2.768-1.038c-6.607-4.138-14.635-6.593-23.237-6.593-2.96 0-5.852 0.291-8.649 0.845l0.281-0.046c-89.021 0-178.041 4.741-267.588 0-34.765-2.634-67.424 11.062-101.663 8.428-22.629 3.625-48.717 5.696-75.29 5.696-13.546 0-26.966-0.538-40.24-1.594l1.752 0.112c-3.531-0.063-7.696-0.099-11.87-0.099-29.229 0-58.048 1.758-86.355 5.175l3.41-0.335c-23.78 3.685-45.094 11.832-63.919 23.59l0.71-0.413c3.687 13.169 14.749 12.642 24.23 12.115 74.272-8.428 149.597 7.374 224.395-2.634 6.819-0.54 13.088-2.426 18.697-5.393l-0.261 0.126c55.555-4.152 120.341-6.519 185.679-6.519 65.337 0 130.12 2.367 194.27 7.019l-8.591-0.5c1.552-0.162 3.353-0.255 5.176-0.255 18.191 0 34.229 9.221 43.693 23.245l0.119 0.187c7.083 59.606 11.124 128.645 11.124 198.627 0 16.1-0.214 32.149-0.639 48.147l0.050-2.362c4.153 28.485 6.525 61.373 6.525 94.815s-2.372 66.329-6.956 98.504l0.431-3.689c0.518 7.518 0.812 16.293 0.812 25.137 0 36.793-5.104 72.393-14.644 106.132l0.663-2.743c0 22.65-13.169 22.65-31.078 22.65-66.897 5.267-133.267 0-200.165 0-4.161-0.369-9.003-0.579-13.893-0.579-23.52 0-45.903 4.863-66.201 13.637l1.082-0.416-10.008 10.008c-8.28 12.245-13.217 27.341-13.217 43.59 0 0.972 0.018 1.94 0.053 2.904l-0.004-0.139c-7.901 84.28-6.848 167.506-13.169 251.786-4.214 8.955-13.169 6.321-22.123 6.321-112.724 0-227.556 4.741-341.86 3.16-27.881-0.622-53.915-7.961-76.724-20.454l0.872 0.438z" />
<glyph unicode="&#xe97a;" horiz-adv-x="950" d="M40.56 933.663c12.115-11.062 5.267-21.070-1.053-32.132-4.772-4.605-7.735-11.058-7.735-18.202 0-3.506 0.714-6.845 2.004-9.881l-0.062 0.165c6.8-33.313 10.693-71.602 10.693-110.8 0-4.751-0.057-9.489-0.171-14.213l0.013 0.701c6.848-86.914 19.49-173.3 26.864-260.214s20.543-179.095 23.704-270.222c0-52.675 5.267-107.984 4.214-161.185 0-23.704 0-23.704-26.864-26.864-12.199 19.119-19.456 42.421-19.49 67.415v0.009c-0.336 3.395-0.528 7.337-0.528 11.325s0.192 7.93 0.567 11.82l-0.039-0.495c0 93.235-5.267 185.942-8.428 279.177-2.373 82.853-10.327 161.881-23.535 239.115l1.412-9.98c-4.741 25.811-5.267 52.675-7.901 79.012-5.267 52.675-6.321 105.35-13.695 154.337-0.718 5.457-1.128 11.767-1.128 18.173s0.41 12.716 1.205 18.906l-0.077-0.733c3.687 22.65 15.276 32.132 40.033 34.765z" />
<glyph unicode="&#xe97b;" horiz-adv-x="950" d="M541.498 640.79c-5.022 12.276-7.937 26.523-7.937 41.45 0 3.953 0.204 7.859 0.603 11.706l-0.040-0.482c0 76.905-10.535 152.757-10.535 229.136-0.918 11.987-2.599 22.965-5.033 33.658l0.292-1.526c7.901 5.267 18.963 5.267 23.704-5.794 1.865-5.714 3.177-12.352 3.671-19.216l0.016-0.274c0-65.844 10.535-132.214 8.428-198.584-0.689-6.746-1.082-14.577-1.082-22.5 0-15.705 1.544-31.049 4.49-45.888l-0.247 1.491c3.16-12.642 0-20.543-15.802-23.177z" />
<glyph unicode="&#xe97c;" horiz-adv-x="950" d="M426.667-20.807c-24.033 4.319-51.697 6.788-79.937 6.788-10.794 0-21.505-0.361-32.119-1.071l1.439 0.077h-129.053c-9.481 0-20.543 2.634-28.444-6.321-21.254 6.045-39.308 17.62-53.106 33.076l-0.095 0.109c34.837-8.489 76.069-14.854 118.249-17.777l2.377-0.132c8.382-1.087 18.077-1.707 27.918-1.707s19.535 0.62 29.049 1.824l-1.131-0.117c15.765 2.787 33.916 4.381 52.438 4.381 32.395 0 63.651-4.874 93.076-13.928l-2.239 0.593s2.634 0 0-3.687 0-2.634 0-2.634z" />
<glyph unicode="&#xe97d;" horiz-adv-x="950" d="M220.708-44.51c23.486 2.523 50.732 3.962 78.313 3.962 38.339 0 76.028-2.781 112.877-8.151l-4.194 0.502c7.897-0.244 15.159-2.769 21.203-6.934l-0.133 0.087h-151.177c-21.043 1.605-40.566 5.914-58.947 12.602l1.531-0.487z" />
<glyph unicode="&#xe97e;" horiz-adv-x="950" d="M744.823 383.737c0-5.794 0-12.642 6.848-16.329s3.687-15.802 0-23.177c-8.428-40.033-38.453-41.613-71.111-42.14-125.893 0-252.313 11.062-377.679 15.802-34.765 0-67.951 0-102.189 0-1.821-0.279-3.923-0.438-6.061-0.438-17.744 0-32.926 10.967-39.139 26.492l-0.1 0.284c-1.458 4.604-2.298 9.898-2.298 15.389 0 14.565 5.911 27.749 15.466 37.285l0.001 0.001c12.642 14.749 27.918 26.337 48.988 12.642 7.702-11.083 20.37-18.247 34.712-18.247 1.876 0 3.723 0.123 5.534 0.36l-0.213-0.023h136.955c55.835-2.634 111.671-7.374 167.506-6.321 41.086 0 81.119 0 122.206 6.321 3.993 0.471 8.618 0.739 13.305 0.739 17.082 0 33.332-3.566 48.044-9.995l-0.773 0.301z" />
<glyph unicode="&#xe97f;" horiz-adv-x="950" d="M730.601 530.7c21.070-10.535 14.222-30.025 14.222-46.354-0.753-13.779-9.073-25.448-20.848-30.984l-0.222-0.094c-12.546-7.984-27.833-12.725-44.228-12.725-1.303 0-2.6 0.030-3.889 0.089l0.183-0.007c-96.395 7.901-189.103 5.267-283.918 13.695-44.247 4.741-88.494 0-132.214 3.687-2.322-0.106-5.044-0.167-7.781-0.167-24.133 0-47.167 4.704-68.235 13.245l1.218-0.436c-15.395 5.812-26.145 20.424-26.145 37.547 0 5.454 1.091 10.654 3.066 15.393l-0.098-0.265c4.247 16.020 18.615 27.634 35.696 27.634 2.654 0 5.243-0.28 7.739-0.813l-0.242 0.043c0.314 0.005 0.684 0.008 1.055 0.008 10.095 0 19.692-2.135 28.363-5.979l-0.447 0.177c0-23.704 20.543-8.428 28.444-16.329 47.407-2.634 94.815 0 142.222 0 6.351-1.177 12.001-3.003 17.303-5.453l-0.447 0.185c20.603-3.339 44.351-5.247 68.545-5.247 10.726 0 21.365 0.375 31.903 1.113l-1.42-0.080h164.346c2.037-0.188 4.405-0.295 6.798-0.295 10.452 0 20.426 2.043 29.546 5.751l-0.525-0.189c3.449 1.693 6.404 3.807 8.959 6.325l-0.004-0.004z" />
<glyph unicode="&#xe980;" horiz-adv-x="950" d="M186.996 164.082c-17.755 8.721-29.76 26.673-29.76 47.429 0 1.847 0.095 3.673 0.281 5.471l-0.019-0.225c0 38.453 13.169 52.675 52.675 52.675h263.901c19.915-0.708 38.111-7.521 52.919-18.611l-0.244 0.175c0-52.675-12.115-61.63-61.63-63.21-71.111-2.634-141.169-9.481-210.7-6.848-11.062 0-22.123 0-28.444-12.115-5.788-5.31-13.537-8.564-22.046-8.564-5.204 0-10.123 1.217-14.49 3.382l0.19-0.085z" />
<glyph unicode="&#xe981;" horiz-adv-x="950" d="M417.712 515.951h-10.008c-25.696 2.33-55.58 3.659-85.775 3.659-11.144 0-22.245-0.181-33.302-0.54l1.611 0.041c-4.021-0.618-8.659-0.971-13.38-0.971-9.119 0-17.931 1.317-26.255 3.77l0.656-0.166h-22.65c-7.901 0-17.383 0-15.802 12.115s12.642 8.955 21.070 8.428c13.348-4.482 28.72-7.068 44.695-7.068 2.807 0 5.596 0.080 8.363 0.237l-0.383-0.017h406.123c3.151 0.502 6.785 0.789 10.485 0.789 10.318 0 20.114-2.23 28.934-6.235l-0.44 0.179s0-5.267 0-7.374c-6.758-6.737-16.045-10.94-26.314-11.062h-0.023c-93.761 0-186.996 0-280.23 0 0 0-3.687 0-5.794 2.634z" />
<glyph unicode="&#xe982;" horiz-adv-x="950" d="M219.128 169.877c0 11.062-3.687 22.123 14.749 20.016 74.272-3.687 148.543 3.687 222.288 4.741 4.491-0.329 9.73-0.516 15.012-0.516s10.521 0.187 15.709 0.556l-0.697-0.040c23.177 4.214 31.605 14.222 33.185 38.979 0 5.794-8.428 16.329 6.848 15.802 8.419-9.3 13.571-21.694 13.571-35.292s-5.152-25.992-13.611-35.337l0.040 0.045c-4.323-7.603-12.369-12.648-21.593-12.648-0.186 0-0.372 0.002-0.558 0.006h0.028c-91.654-4.741-182.782-5.267-273.383 0-4.544 0.347-8.577 2.293-11.59 5.269l0.002-0.002z" />
<glyph unicode="&#xe983;" horiz-adv-x="950" d="M744.823 383.737h-60.049c-0.003 0.086-0.005 0.186-0.005 0.288 0 4.364 3.538 7.901 7.901 7.901 0.752 0 1.479-0.105 2.168-0.301l-0.056 0.014c-149.597-17.909-300.774 5.267-451.951 0 40.56 0 81.646 0 122.733 0 8.955 0 22.123 7.374 27.918-7.901-48.988 0-98.502 0-148.016 0-22.65 0-22.65 0-25.284 26.337 85.333 0 170.667 0 254.947 0 73.745-3.687 145.909 0 218.601 0 22.123 0 42.14 0 52.675-26.337z" />
<glyph unicode="&#xe984;" horiz-adv-x="950" d="M56.889 901.531c16.971 15.814 39.813 25.521 64.923 25.521 2.363 0 4.705-0.086 7.025-0.255l-0.311 0.018c67.424 2.107 134.848 3.16 201.745-0.527 48.461-3.16 96.922-3.16 143.802-4.214 8.955 0 17.909 0 23.704-6.848 0-4.214-5.267-4.741-8.428 0h-309.202c-6.821 0.46-14.785 0.722-22.81 0.722-35.983 0-70.737-5.267-103.531-15.073l2.554 0.656z" />
<glyph unicode="&#xe985;" horiz-adv-x="950" d="M426.667-20.807v6.321c52.675 0 105.35-10.535 158.025-6.321 69.004 6.321 139.062 4.214 210.7 5.267 20.15 0.728 38.433 8.166 52.817 20.131l-0.142-0.115c0.107-0.712 0.167-1.534 0.167-2.37 0-7.488-4.882-13.835-11.637-16.032l-0.119-0.034c-9.198-4.587-19.904-7.764-31.208-8.922l-0.397-0.033c-99.029-6.321-197.531-10.008-297.613-6.848-26.337 0-52.675 5.794-79.012 8.428z" />
<glyph unicode="&#xe986;" horiz-adv-x="950" d="M219.128 169.877c90.601 0 181.202 0 271.802 0 13.282 1.33 25.423 5.076 36.368 10.796l-0.549-0.261c0-13.695-12.642-15.802-24.757-17.383-98.502-8.955-197.531-4.741-296.56-5.267-0.929-0.153-1.999-0.24-3.090-0.24-5.867 0-11.144 2.524-14.805 6.545l-0.014 0.016c11.062 0 22.65 0 32.132 6.321z" />
<glyph unicode="&#xe987;" horiz-adv-x="950" d="M490.93 914.173h8.428c4.033-7.273 6.407-15.948 6.407-25.177 0-2.827-0.223-5.601-0.651-8.307l0.039 0.299c0-71.111 5.267-143.276 8.428-214.387 1.642-19.548 4.812-37.495 9.448-54.843l-0.493 2.168c-13.169 4.214-15.276 15.276-16.329 26.337-3.16 26.337-5.267 52.675-6.321 78.486-3.687 65.844-5.794 130.634-8.955 195.424z" />
<glyph unicode="&#xe988;" horiz-adv-x="950" d="M847.539 569.679c7.11-14.122 11.273-30.778 11.273-48.406 0-4.474-0.268-8.886-0.789-13.219l0.051 0.523c3.687-69.531 9.481-139.062 7.901-210.7 0.373-3.597 0.585-7.771 0.585-11.996 0-14.576-2.53-28.561-7.175-41.54l0.269 0.86c-5.794 2.634-2.634 9.481-5.794 13.169 3.22 15.837 5.063 34.041 5.063 52.675s-1.843 36.838-5.357 54.439l0.294-1.764c-0.628 4.981-0.986 10.745-0.986 16.593s0.358 11.612 1.054 17.271l-0.068-0.679c0.078 4.86 0.123 10.596 0.123 16.342 0 44.918-2.724 89.199-8.016 132.688l0.518-5.228c-0.473 10.548-1.792 20.49-3.901 30.138l0.214-1.167c0 2.634 4.214 2.634 6.848 0z" />
<glyph unicode="&#xe989;" horiz-adv-x="950" d="M847.539 569.679h-4.741c-4.214 20.543-20.016 18.963-36.346 19.49-73.745 3.16-147.49-3.687-221.235 0-18.436 0-37.399 0-52.675 16.329 31.089-6.257 66.826-9.837 103.4-9.837 27.634 0 54.791 2.044 81.328 5.99l-3-0.366c5.939 1.188 12.767 1.868 19.753 1.868s13.814-0.68 20.42-1.978l-0.667 0.109c12.161-2.395 26.143-3.765 40.446-3.765 7.832 0 15.568 0.411 23.188 1.212l-0.951-0.081c19.49 0 29.498-7.374 31.605-26.337z" />
<glyph unicode="&#xe98a;" horiz-adv-x="950" d="M853.86 262.584c4.741-3.16 5.267-8.955 5.794-13.169 0-33.185 0-65.844 0-99.029 0-46.881-8.955-91.654-8.955-138.008 0-3.16-3.687-5.267-5.267-7.901-3.493 9.568-5.513 20.614-5.513 32.132s2.020 22.564 5.725 32.803l-0.212-0.671c3.463 26.843 5.44 57.894 5.44 89.407 0 5.606-0.063 11.196-0.187 16.772l0.015-0.829c-0.761 13.297-1.194 28.853-1.194 44.51s0.433 31.213 1.289 46.656l-0.095-2.146z" />
<glyph unicode="&#xe98b;" horiz-adv-x="950" d="M753.778 344.23c0 7.901 0 16.329 0 23.177 11.062-6.321 8.955-14.749 0-23.177z" />
<glyph unicode="&#xe98c;" horiz-adv-x="950" d="M393.481 384.79c-13.169 8.955-27.918 4.741-41.613 5.267-41.086 0-81.646 0-121.679 3.687 163.819 8.955 327.111-5.267 490.93 2.634-10.535-10.008-25.811 0-35.819-11.588-43.726-5.577-94.314-8.76-145.646-8.76s-101.92 3.183-151.579 9.362l5.933-0.602z" />
<glyph unicode="&#xe98d;" horiz-adv-x="950" d="M417.712 515.951h263.374c3.2-0.293 6.921-0.46 10.682-0.46 15.061 0 29.496 2.678 42.856 7.585l-0.862-0.277c0.124-0.541 0.194-1.162 0.194-1.8 0-3.976-2.754-7.309-6.458-8.197l-0.057-0.012c-3.935-0.234-8.536-0.367-13.169-0.367s-9.234 0.133-13.801 0.396l0.632-0.029c-86.387 0-171.72-4.214-257.58 0-1.82-0.338-3.913-0.531-6.052-0.531-6.084 0-11.803 1.563-16.777 4.309l0.179-0.091z" />
<glyph unicode="&#xe98e;" horiz-adv-x="950" d="M251.786 522.272h134.321c1.311 0.196 2.824 0.308 4.363 0.308 6.647 0 12.807-2.087 17.86-5.641l-0.099 0.066c-16.725-1.558-36.168-2.447-55.819-2.447-36.091 0-71.481 2.997-105.936 8.756l3.731-0.515z" />
<glyph unicode="&#xe98f;" horiz-adv-x="950" d="M105.35 8.691c-13.817 2.065-25.55 9.645-33.081 20.386l-0.104 0.157c10.997 12.031 17.734 28.117 17.734 45.777 0 2.429-0.127 4.829-0.376 7.192l0.025-0.295c0 108.51-11.588 217.021-22.65 325.531-11.062 116.412-26.337 233.35-34.765 349.761 0.902 8.464 1.417 18.285 1.417 28.226 0 19.841-2.050 39.202-5.951 57.885l0.32-1.831c-0.34 1.343-0.535 2.885-0.535 4.473 0 6.093 2.874 11.515 7.34 14.984l0.043 0.032c20.016 0 5.267-13.169 8.955-18.963 5.267 8.955 5.794 24.23 21.597 28.444 16.406 7.556 35.588 12.007 55.797 12.115h326.097c1.832 0.195 3.957 0.306 6.109 0.306 9.247 0 18.015-2.054 25.871-5.731l-0.375 0.158c5.855-5.144 9.53-12.646 9.53-21.007 0-0.578-0.018-1.152-0.052-1.722l0.004 0.078c0-52.675 9.481-109.037 7.901-164.346-0.163-3.284-0.256-7.13-0.256-10.999 0-28.152 4.919-55.156 13.944-80.198l-0.519 1.649c6.173-6.76 12.896-12.814 20.165-18.17l0.379-0.266c10.689-6.31 23.552-10.037 37.286-10.037 3.196 0 6.346 0.202 9.436 0.594l-0.367-0.038c66.897 0 134.321 3.16 201.745 0 20.016 0 38.979-2.634 46.354-24.757 6.248-15.304 9.875-33.063 9.875-51.669 0-3.691-0.143-7.349-0.423-10.968l0.030 0.48c5.025-45.185 7.891-97.574 7.891-150.632 0-30.583-0.952-60.944-2.829-91.055l0.206 4.123c0.057-5.715 0.090-12.468 0.090-19.229 0-78.773-4.434-156.511-13.065-232.977l0.86 9.375c-0.982-4.009-2.617-7.531-4.806-10.633l0.066 0.098c-13.914-13.468-32.901-21.769-53.827-21.769-1.819 0-3.622 0.063-5.41 0.186l0.241-0.013c-65.317 0-130.634 0-195.951-5.267-8.297-0.254-18.056-0.398-27.849-0.398-43.292 0-85.923 2.825-127.721 8.299l4.92-0.527c-29.3 6.544-62.952 10.294-97.479 10.294-18.362 0-36.477-1.060-54.286-3.124l2.169 0.204c-11.339-1.596-24.437-2.506-37.748-2.506-45.086 0-87.731 10.451-125.645 29.063l1.681-0.745z" />
<glyph unicode="&#xe990;" horiz-adv-x="950" d="M57.416 862.025l-15.276-30.551c0 12.642 0 22.123 0 30.551-1.785 4.616-2.818 9.957-2.818 15.539s1.034 10.924 2.921 15.842l-0.102-0.303c12.546 14.794 31.146 24.121 51.925 24.121 3.986 0 7.892-0.343 11.69-1.002l-0.405 0.058c65.844 0 131.687 4.214 198.058 0 52.675-4.741 109.037 0 163.819 0h38.453c9.802-9.575 15.88-22.924 15.88-37.694 0-1.008-0.028-2.010-0.084-3.004l0.006 0.138c0-82.7 8.428-165.926 9.481-249.152 0.007-0.213 0.011-0.464 0.011-0.715 0-5.053-1.581-9.737-4.275-13.583l0.051 0.076c7.901-21.070 25.284-20.543 43.193-19.49 51.832 5.732 111.935 9.003 172.802 9.003 4.435 0 8.866-0.017 13.293-0.052l-0.679 0.004c31.197-2.112 59.722-5.856 87.661-11.247l-4.435 0.712c32.132-4.922 58.77-24.776 72.96-52.127l0.259-0.548c2.414-4.445 3.833-9.733 3.833-15.352 0-1.086-0.053-2.16-0.157-3.219l0.011 0.134c0-151.177 10.008-301.827 6.848-451.951 0.117-1.856 0.183-4.025 0.183-6.21 0-45.402-28.72-84.095-68.983-98.904l-0.731-0.235c-12.693-7.426-27.93-15.015-43.67-21.646l-2.684-1.004c-8.955-7.901-19.49-5.267-30.551-5.267-85.86 0-172.774 4.214-259.16-2.634-33.712 0-65.317 11.062-98.502 8.428-24.315 4.259-52.313 6.694-80.88 6.694-10.462 0-20.847-0.327-31.146-0.97l1.41 0.070c-4.344-0.1-9.462-0.156-14.593-0.156-27.153 0-53.935 1.588-80.259 4.675l3.197-0.305c-22.143 5.574-41.526 15.027-58.357 27.689l0.414-0.298c3.16 12.642 14.222 12.642 23.177 11.588 72.165-7.901 144.856 6.848 217.547-2.634 6.637-0.536 12.727-2.423 18.146-5.386l-0.236 0.118c53.912-4.162 116.753-6.534 180.148-6.534s126.236 2.372 188.439 7.033l-8.291-0.499c1.415-0.135 3.060-0.212 4.723-0.212 17.496 0 33 8.53 42.58 21.659l0.104 0.15c6.68 57.767 10.491 124.704 10.491 192.532 0 14.538-0.175 29.036-0.523 43.49l0.041-2.145c4.099 27.381 6.441 58.981 6.441 91.128s-2.341 63.747-6.862 94.638l0.422-3.511c0.485 7.205 0.762 15.617 0.762 24.094 0 35.655-4.893 70.168-14.044 102.903l0.641-2.684c0 19.49-14.222 22.123-31.605 22.65-64.79 5.267-129.58 0-194.37 0-4.382-0.432-9.472-0.678-14.619-0.678-22.51 0-43.921 4.707-63.302 13.19l1.017-0.397c-3.409 2.975-6.507 6.072-9.384 9.368l-0.097 0.114c-7.97 11.106-12.745 24.973-12.745 39.956 0 1.324 0.037 2.64 0.111 3.946l-0.008-0.181c-7.901 79.539-6.848 158.025-12.642 239.671-4.741 8.955-12.642 6.321-19.49 6.321-110.617 0-221.761 4.741-332.905 3.16-26.934-1.214-51.957-8.282-74.186-19.953l0.968 0.463z" />
<glyph unicode="&#xe991;" horiz-adv-x="950" d="M42.14 893.103c9.481-11.062 5.267-21.070 0-31.078-4.434-4.312-7.184-10.334-7.184-16.999 0-3.375 0.705-6.585 1.976-9.491l-0.059 0.153c5.907-29.816 9.287-64.097 9.287-99.167 0-6.62-0.12-13.212-0.359-19.774l0.027 0.949c6.848-83.226 18.436-165.926 26.337-249.152s19.49-171.193 22.65-258.634c0-52.675 5.267-105.35 4.214-154.864 0-22.123 0-22.123-26.337-25.284-12.002 17.795-19.389 39.58-20.013 63.051l-0.003 0.159c-0.335 3.238-0.526 6.996-0.526 10.798s0.191 7.561 0.564 11.265l-0.038-0.467c0 89.547-5.267 177.514-8.428 266.535-1.558 78.99-8.778 155.029-21.282 229.273l1.266-9.092c-3.518 21.016-6.335 46.745-7.812 72.831l-0.089 1.967c-4.214 49.514-5.794 99.556-13.169 148.543-0.649 5.139-1.019 11.086-1.019 17.119s0.37 11.98 1.089 17.819l-0.070-0.699c3.16 22.123 14.222 30.551 38.453 33.712z" />
<glyph unicode="&#xe992;" horiz-adv-x="950" d="M526.749 612.346c-4.621 11.727-7.3 25.31-7.3 39.519 0 3.519 0.164 7 0.486 10.435l-0.033-0.44c0 72.691-10.535 146.436-10.008 219.128-0.74 11.898-2.24 22.908-4.478 33.647l0.264-1.515c9.481 6.321 17.909 6.848 21.070-5.794 1.979-5.592 3.299-12.059 3.679-18.777l0.008-0.186c0-63.21 9.481-126.42 7.374-189.63-0.585-6.211-0.918-13.43-0.918-20.727 0-15.397 1.484-30.447 4.318-45.015l-0.239 1.478c3.687-12.115 0-19.49-15.276-22.123z" />
<glyph unicode="&#xe993;" horiz-adv-x="950" d="M416.132-21.333c-23.615 4.169-50.803 6.552-78.548 6.552-9.429 0-18.793-0.275-28.085-0.818l1.283 0.060h-127.473c-9.481 0-19.49 0-26.864-6.321-20.752 5.629-38.55 16.26-52.664 30.54l-0.011 0.011c33.824-8.295 73.798-14.475 114.704-17.261l2.234-0.122c7.908-1.034 17.054-1.624 26.337-1.624s18.429 0.59 27.402 1.735l-1.064-0.111c14.839 2.389 31.946 3.753 49.372 3.753 32.138 0 63.191-4.642 92.527-13.292l-2.31 0.584s0 0 0-3.16 0-2.634 0-2.634z" />
<glyph unicode="&#xe994;" horiz-adv-x="950" d="M216.494-44.51c22.708 2.433 49.050 3.821 75.717 3.821 37.398 0 74.158-2.729 110.092-7.999l-4.081 0.491c7.652-0.267 14.711-2.586 20.708-6.42l-0.165 0.099h-146.436c-20.255 1.497-39.068 5.622-56.775 12.054l1.466-0.465z" />
<glyph unicode="&#xe995;" horiz-adv-x="950" d="M724.807 365.827c0-5.267 0-12.115 6.321-15.276s3.687-15.276 0-23.177c-7.901-38.453-37.399-40.033-69.004-40.56-121.679 0-243.885 10.535-366.091 14.749-33.185 0-65.844 0-98.502 0-0.451-0.018-0.98-0.028-1.511-0.028-17.302 0-32.074 10.834-37.902 26.087l-0.093 0.278c-1.97 5.103-3.111 11.008-3.111 17.179 0 13.959 5.838 26.554 15.206 35.477l0.020 0.019c12.642 13.169 26.864 24.757 47.407 12.115 7.323-10.475 19.327-17.241 32.912-17.241 1.954 0 3.876 0.14 5.756 0.411l-0.215-0.025h129.053c52.675-2.634 105.35-7.374 162.765-6.321 39.506 0 78.486 0 117.992 6.321 3.908 0.476 8.433 0.748 13.021 0.748 16.64 0 32.446-3.572 46.693-9.992l-0.718 0.289z" />
<glyph unicode="&#xe996;" horiz-adv-x="950" d="M711.111 506.469c20.016-10.008 13.695-28.444 13.695-44.247s-9.481-22.123-21.070-29.498c-11.808-7.665-26.249-12.222-41.754-12.222-1.433 0-2.856 0.039-4.27 0.116l0.197-0.009c-91.654 7.901-183.835 5.267-275.49 13.695-42.667 4.214-85.86 0-128.527 3.16-2.009-0.079-4.367-0.123-6.737-0.123-23.718 0-46.387 4.492-67.203 12.671l1.248-0.432c-15.016 5.463-25.547 19.613-25.547 36.222 0 4.772 0.869 9.341 2.458 13.557l-0.088-0.265c4.412 15.136 18.161 26.008 34.449 26.008 2.536 0 5.010-0.264 7.397-0.765l-0.233 0.041c0.753 0.031 1.637 0.048 2.526 0.048 9.366 0 18.276-1.956 26.343-5.481l-0.424 0.165c0-23.177 20.016-7.901 27.918-15.802 45.3 0 91.654 0 137.481 0 2.604 0.236 5.632 0.37 8.691 0.37s6.088-0.134 9.079-0.398l-0.387 0.028c19.243-3.113 41.426-4.892 64.025-4.892 11.207 0 22.311 0.437 33.298 1.296l-1.454-0.091h158.025c2.023-0.181 4.377-0.284 6.755-0.284 10.058 0 19.686 1.843 28.565 5.209l-0.554-0.184 8.955 6.321z" />
<glyph unicode="&#xe997;" horiz-adv-x="950" d="M183.835 155.128c-17.479 8.815-29.258 26.624-29.258 47.184 0 1.934 0.104 3.844 0.307 5.724l-0.020-0.233c0 36.346 13.169 49.514 52.675 49.514h254.947c19.978-0.16 38.311-7.077 52.856-18.575l-0.181 0.138c0-47.934-11.588-57.942-60.049-60.576-70.584-2.634-139.062-8.428-208.593-8.428-11.062 0-21.597 0-27.918-11.062-5.713-5.018-13.252-8.080-21.506-8.080-4.801 0-9.359 1.036-13.465 2.896l0.205-0.083z" />
<glyph unicode="&#xe998;" horiz-adv-x="950" d="M407.177 492.247h-8.955c-24.261 2.424-52.435 3.807-80.933 3.807-11.736 0-23.418-0.234-35.040-0.699l1.669 0.053c-3.457-0.484-7.45-0.761-11.508-0.761-9.242 0-18.149 1.434-26.51 4.091l0.619-0.17h-22.65c-7.374 0-16.329 0-14.749 11.588s12.115 8.955 20.016 7.901c13.37-4.479 28.765-7.063 44.764-7.063 2.783 0 5.547 0.078 8.291 0.232l-0.381-0.017h394.008c2.883 0.433 6.211 0.681 9.596 0.681 10.071 0 19.631-2.191 28.228-6.122l-0.424 0.174c-0.061-1.023-0.095-2.219-0.095-3.424s0.035-2.401 0.103-3.588l-0.008 0.164c-6.325-6.508-15.161-10.546-24.941-10.546-0.306 0-0.611 0.004-0.915 0.012l0.045-0.001c-90.601 0-181.202 0-271.802 0 0 0-3.687 0-5.794 0z" />
<glyph unicode="&#xe999;" horiz-adv-x="950" d="M214.914 161.975c0 10.535-3.687 20.543 14.222 19.49 72.165-3.687 143.802 3.16 215.44 4.214 4.334-0.318 9.388-0.499 14.486-0.499s10.152 0.181 15.158 0.537l-0.673-0.038c22.65 3.687 30.551 13.695 32.132 37.399 0 5.267-8.428 15.802 6.848 15.276 8.566-8.656 13.858-20.566 13.858-33.712s-5.292-25.056-13.862-33.716l0.004 0.004c-4.238-7.454-12.050-12.445-21.043-12.642h-0.027c-87.967-4.214-176.461-4.741-263.374 0-4.496 0.285-8.43 2.474-11.038 5.763l-0.024 0.032z" />
<glyph unicode="&#xe99a;" horiz-adv-x="950" d="M724.807 365.827h-58.469c0.207 4.49 3.897 8.052 8.42 8.052 0.562 0 1.111-0.055 1.642-0.16l-0.053 0.009c-144.856-16.856-291.292 5.267-437.728 0h118.519c8.955 0 22.123 7.374 27.391-7.901-47.407 0-95.342 0-143.802 0-22.123 0-22.123 0-24.757 24.757 82.7 0 165.399 0 247.572 0 70.584-3.687 141.169 0 210.7 0 21.070 0 40.56 0 49.514-25.284z" />
<glyph unicode="&#xe99b;" horiz-adv-x="950" d="M57.416 862.025c16.244 15.219 38.15 24.566 62.24 24.566 2.752 0 5.475-0.122 8.165-0.361l-0.348 0.025c64.79 0 130.107 3.16 195.424 0 46.881-3.687 93.761-3.687 140.115-4.214 8.955 0 17.383 0 23.177-6.848 0-3.687-4.741-4.214-8.428 0h-300.247c-7.108 0.512-15.4 0.803-23.761 0.803-34.31 0-67.474-4.911-98.826-14.068l2.487 0.623z" />
<glyph unicode="&#xe99c;" horiz-adv-x="950" d="M416.132-21.333v5.794c50.041 0 100.609-9.481 150.65-5.267 66.897 5.794 134.848 3.687 202.272 5.267 20.119 0.35 38.468 7.653 52.812 19.601l-0.137-0.111c0.155-0.83 0.243-1.785 0.243-2.761 0-7.124-4.714-13.147-11.193-15.12l-0.112-0.029c-8.885-3.998-19.195-6.958-29.991-8.368l-0.561-0.060c-96.395-6.321-192.263-9.481-288.658-6.321-25.284 0-52.675 5.267-75.852 7.901z" />
<glyph unicode="&#xe99d;" horiz-adv-x="950" d="M214.914 161.975h263.374c12.306 0.495 23.824 3.355 34.281 8.134l-0.569-0.233c0-13.169-11.588-15.276-23.177-16.329-95.342-8.428-191.737-4.214-287.605-5.267-0.978-0.174-2.103-0.273-3.252-0.273-5.558 0-10.573 2.327-14.123 6.059l-0.008 0.008c10.535 0 22.123 0 31.078 6.848z" />
<glyph unicode="&#xe99e;" horiz-adv-x="950" d="M478.288 874.14h8.428c3.889-7.166 6.176-15.69 6.176-24.749 0-2.231-0.139-4.429-0.408-6.587l0.026 0.258c0-67.951 4.741-136.428 7.901-205.432 1.757-18.667 4.919-35.69 9.449-52.146l-0.494 2.104c-12.642 3.687-14.222 14.749-15.802 24.757-2.634 25.284-4.741 49.514-5.794 75.325-4.214 61.63-6.321 123.786-9.481 186.469z" />
<glyph unicode="&#xe99f;" horiz-adv-x="950" d="M824.362 544.395c6.822-13.291 10.821-28.999 10.821-45.641 0-4.523-0.295-8.976-0.868-13.343l0.055 0.514c3.687-66.897 9.481-133.267 7.901-199.638 0.312-3.302 0.489-7.139 0.489-11.019 0-13.956-2.3-27.375-6.541-39.899l0.258 0.876c-5.794 3.16-3.16 8.955-5.267 13.169 3.12 15.441 4.906 33.191 4.906 51.358s-1.786 35.917-5.191 53.084l0.286-1.726c-0.539 4.819-0.847 10.407-0.847 16.066s0.308 11.246 0.907 16.746l-0.060-0.68c0.118 5.941 0.186 12.945 0.186 19.965 0 41.588-2.364 82.623-6.964 122.98l0.457-4.936c-1.478 8.227-3.304 15.311-5.589 22.186l0.322-1.116c0.774 1.070 2.019 1.757 3.424 1.757s2.65-0.688 3.415-1.745l0.008-0.012z" />
<glyph unicode="&#xe9a0;" horiz-adv-x="950" d="M824.362 544.395h-6.848c-3.687 20.016-19.49 18.963-34.765 19.49-71.638 2.634-143.276-3.687-214.387 0-17.383 0-36.872 0-49.514 15.802 30.187-6.142 64.884-9.657 100.403-9.657 26.648 0 52.834 1.979 78.419 5.798l-2.888-0.354c5.78 0.977 12.438 1.535 19.226 1.535s13.447-0.558 19.931-1.632l-0.705 0.096c11.781-2.38 25.323-3.742 39.183-3.742 7.535 0 14.976 0.403 22.303 1.187l-0.91-0.079c18.963 0 28.444-6.848 30.551-25.284z" />
<glyph unicode="&#xe9a1;" horiz-adv-x="950" d="M830.683 249.942c3.258-3.323 5.269-7.879 5.269-12.905 0-0.093-0.001-0.186-0.002-0.278v0.014c0-31.605 0-62.683 0-94.288 0-44.774-8.955-87.967-8.955-132.214 0-3.16-3.16-5.267-4.741-7.374-3.401 9.17-5.368 19.763-5.368 30.815s1.968 21.645 5.571 31.447l-0.203-0.632c3.41 26.75 5.356 57.699 5.356 89.103 0 4.046-0.032 8.084-0.097 12.114l0.008-0.608c-0.768 12.75-1.206 27.657-1.206 42.667s0.438 29.917 1.301 44.709l-0.095-2.043z" />
<glyph unicode="&#xe9a2;" horiz-adv-x="950" d="M733.235 327.901c0 7.374 0 15.276 0 23.177 10.535-6.321 8.955-14.749 0-23.177z" />
<glyph unicode="&#xe9a3;" horiz-adv-x="950" d="M384.527 366.881c-8.614 3.886-18.674 6.151-29.264 6.151-3.988 0-7.901-0.321-11.714-0.939l0.418 0.056c-38.979 0-79.012 0-117.992 3.16 158.025 8.428 316.049-5.267 474.074 2.634-10.008-9.481-24.757 0-34.765-11.062-42.37-5.155-91.426-8.097-141.169-8.097s-98.8 2.942-147.005 8.66l5.836-0.564z" />
<glyph unicode="&#xe9a4;" horiz-adv-x="950" d="M407.177 492.247h252.84c3.474-0.365 7.506-0.573 11.587-0.573 14.759 0 28.881 2.722 41.894 7.691l-0.806-0.27c0.134-0.544 0.21-1.169 0.21-1.811 0-3.69-2.53-6.79-5.95-7.658l-0.055-0.012c-3.855-0.214-8.366-0.335-12.905-0.335s-9.051 0.122-13.53 0.362l0.625-0.027c-83.226 0-166.453-3.687-249.679 0-1.737-0.294-3.738-0.462-5.778-0.462-5.754 0-11.196 1.337-16.032 3.718l0.213-0.095z" />
<glyph unicode="&#xe9a5;" horiz-adv-x="950" d="M246.519 499.095h130.634c1.164 0.175 2.508 0.275 3.875 0.275 6.536 0 12.537-2.289 17.246-6.11l-0.051 0.040c-14.977-1.276-32.411-2.004-50.015-2.004-35.913 0-71.119 3.028-105.376 8.842l3.687-0.517z" />
</font>
</defs>
</svg>
